<svg width="50" height="63" viewBox="0 0 50 63" fill="none" xmlns="http://www.w3.org/2000/svg">
<path d="M4.39588 62.211C3.36343 62.625 2.39871 62.5228 1.50171 61.9044C0.604711 61.2859 0.15749 60.4285 0.160045 59.3322V44.2634C0.160045 43.2309 0.401546 42.2496 0.884546 41.3194C1.36755 40.3917 2.05371 39.6506 2.94304 39.096L7.52771 36.0945C7.97493 40.531 8.55121 44.3886 9.25655 47.6674C9.96188 50.9461 11.1234 54.6862 12.741 58.8875L4.39588 62.211ZM18.0425 57.0974C17.2938 57.0974 16.674 56.8469 16.1834 56.346C15.6927 55.8451 15.3119 55.2522 15.041 54.5674C13.661 50.6522 12.6158 47.0336 11.9054 43.7113C11.2 40.3917 10.8474 36.6478 10.8474 32.4797C10.8474 26.2595 11.8057 20.5222 13.7224 15.268C15.639 10.0138 18.6546 5.24896 22.769 0.973514C23.0502 0.641291 23.39 0.407459 23.7887 0.272014C24.1848 0.13657 24.5886 0.0688477 25 0.0688477C25.4115 0.0688477 25.8153 0.13657 26.2114 0.272014C26.6075 0.407459 26.9487 0.641291 27.2349 0.973514C31.3493 5.2464 34.3649 10.01 36.2815 15.2642C38.1982 20.5184 39.1565 26.2582 39.1565 32.4835C39.1565 36.713 38.8141 40.4594 38.1292 43.7229C37.4443 46.9863 36.3876 50.6011 34.959 54.5674C34.6882 55.2522 34.3074 55.8451 33.8167 56.346C33.326 56.8469 32.7076 57.0974 31.9614 57.0974H18.0425ZM25 32.9167C26.6177 32.9167 27.9798 32.3621 29.0864 31.253C30.1955 30.1465 30.75 28.7843 30.75 27.1667C30.75 25.549 30.1955 24.1869 29.0864 23.0803C27.9773 21.9738 26.6152 21.4192 25 21.4167C23.3849 21.4141 22.0228 21.9687 20.9137 23.0803C19.8046 24.1869 19.25 25.549 19.25 27.1667C19.25 28.7843 19.8046 30.1465 20.9137 31.253C22.0228 32.3596 23.3849 32.9141 25 32.9167ZM45.5314 62.2877L37.1862 58.9604C38.8039 54.759 39.9654 51.0075 40.6707 47.7057C41.376 44.4039 41.951 40.5322 42.3957 36.0907L46.9842 39.1688C47.8735 39.7234 48.5597 40.4645 49.0427 41.3922C49.5283 42.3224 49.771 43.3037 49.771 44.3362V59.4012C49.771 60.5001 49.3225 61.3587 48.4255 61.9772C47.5285 62.5956 46.5638 62.6978 45.5314 62.2838" fill="#A22064"/>
</svg>
