<svg width="63" height="63" viewBox="0 0 63 63" fill="none" xmlns="http://www.w3.org/2000/svg">
<path fill-rule="evenodd" clip-rule="evenodd" d="M33.8787 41.9855C36.4995 40.4759 38.789 38.4571 40.6112 36.0489C40.0239 35.1391 39.6061 34.1313 39.3777 33.0738L39.2918 32.6777C39.0457 31.5469 38.466 30.5152 37.6271 29.7148C36.7882 28.9145 35.7284 28.382 34.5836 28.1859C25.2214 26.5656 25.2214 13.18 34.5836 11.5552C35.6893 11.3656 36.7166 10.8622 37.5421 10.1053C38.3677 9.34845 38.9564 8.37034 39.2376 7.28839C37.0361 4.89873 34.342 3.01133 31.3399 1.75548C28.3379 0.499624 25.0988 -0.0950042 21.8445 0.0123266C18.5903 0.119657 15.3977 0.926411 12.4857 2.37732C9.57358 3.82823 7.01075 5.88902 4.97274 8.4185C2.93473 10.948 1.4697 13.8864 0.678002 17.0324C-0.113695 20.1785 -0.213347 23.4578 0.385872 26.6458C0.985092 29.8338 2.26902 32.8551 4.14971 35.5027C6.0304 38.1504 8.4634 40.3618 11.2821 41.9855V47.247C11.2821 48.4407 11.7581 49.5855 12.6055 50.4296C13.4528 51.2737 14.6021 51.7479 15.8005 51.7479H29.3558C30.5541 51.7479 31.7034 51.2737 32.5508 50.4296C33.3982 49.5855 33.8742 48.4407 33.8742 47.247L33.8787 41.9855ZM11.2866 59.6244C11.2866 58.7291 11.6436 57.8705 12.2791 57.2374C12.9147 56.6044 13.7766 56.2487 14.6754 56.2487H30.4899C31.3887 56.2487 32.2506 56.6044 32.8862 57.2374C33.5217 57.8705 33.8787 58.7291 33.8787 59.6244C33.8787 60.5196 33.5217 61.3782 32.8862 62.0113C32.2506 62.6443 31.3887 63 30.4899 63H14.6754C13.7766 63 12.9147 62.6443 12.2791 62.0113C11.6436 61.3782 11.2866 60.5196 11.2866 59.6244ZM44.1807 7.71597C45.0076 3.95326 50.3846 3.93075 51.2431 7.68447L51.2837 7.8645L51.365 8.21557C51.8527 10.2715 52.9349 12.1399 54.4777 13.5894C56.0205 15.039 57.9561 16.0061 60.045 16.3711C63.985 17.0553 63.985 22.6903 60.045 23.3745C57.944 23.7411 55.9982 24.7168 54.4511 26.1794C52.904 27.6421 51.8242 29.5267 51.347 31.5975L51.2431 32.0566C50.3846 35.8148 45.0031 35.7923 44.1717 32.0251L44.0859 31.6335C43.6303 29.5547 42.5636 27.6582 41.0218 26.1856C39.4799 24.7131 37.5328 23.7313 35.4285 23.3655C31.493 22.6858 31.493 17.0598 35.4285 16.3756C37.5254 16.0124 39.4669 15.0376 41.0072 13.5745C42.5475 12.1115 43.6174 10.2261 44.0813 8.15706L44.1491 7.8645L44.1807 7.71597Z" fill="#A22064"/>
</svg>
