<svg width="72" height="50" viewBox="0 0 72 50" fill="none" xmlns="http://www.w3.org/2000/svg">
<path d="M36 15.25C33.4141 15.25 30.9342 16.2772 29.1057 18.1057C27.2772 19.9342 26.25 22.4141 26.25 25C26.25 27.5859 27.2772 30.0658 29.1057 31.8943C30.9342 33.7228 33.4141 34.75 36 34.75C38.5859 34.75 41.0658 33.7228 42.8943 31.8943C44.7228 30.0658 45.75 27.5859 45.75 25C45.75 22.4141 44.7228 19.9342 42.8943 18.1057C41.0658 16.2772 38.5859 15.25 36 15.25ZM36 41.25C31.6902 41.25 27.557 39.538 24.5095 36.4905C21.462 33.443 19.75 29.3098 19.75 25C19.75 20.6902 21.462 16.557 24.5095 13.5095C27.557 10.462 31.6902 8.75 36 8.75C40.3098 8.75 44.443 10.462 47.4905 13.5095C50.538 16.557 52.25 20.6902 52.25 25C52.25 29.3098 50.538 33.443 47.4905 36.4905C44.443 39.538 40.3098 41.25 36 41.25ZM36 0.625C19.75 0.625 5.8725 10.7325 0.25 25C5.8725 39.2675 19.75 49.375 36 49.375C52.25 49.375 66.1275 39.2675 71.75 25C66.1275 10.7325 52.25 0.625 36 0.625Z" fill="#A22064"/>
</svg>
