<svg width="61" height="61" viewBox="0 0 61 61" fill="none" xmlns="http://www.w3.org/2000/svg">
<g clip-path="url(#clip0_49_5198)">
<path d="M38.7943 10.2926L31.1569 18.3211L31.5484 27.3919L38.6374 20.5676L38.7943 10.2926Z" fill="#EB008B"/>
<path d="M22.3999 10.9506L30.7033 18.3296L31.0918 27.3974L23.4387 21.1788L22.3999 10.9506Z" fill="#EB008B"/>
<path d="M23.1917 47.9601L30.2926 41.0457L30.2506 32.9307L23.6834 38.7821L23.1917 47.9601Z" fill="#EB008B"/>
<path d="M37.8653 47.9342L30.7012 41.0581L30.6592 32.9431L37.2844 38.758L37.8653 47.9342Z" fill="#EB008B"/>
<path d="M48.5982 37.8751L41.7546 30.1252L33.3117 29.7313L39.079 36.8732L48.5982 37.8751Z" fill="#EB008B"/>
<path d="M49.2874 22.6104L41.7841 29.6986L33.3442 29.3077L39.7154 22.726L49.2874 22.6104Z" fill="#EB008B"/>
<path d="M12.7901 23.2191L20.0206 30.3176L28.2946 30.1104L22.1613 23.5329L12.7901 23.2191Z" fill="#EB008B"/>
<path d="M13.1882 38.1847L20.0181 30.7352L28.2951 30.525L22.5282 37.4048L13.1882 38.1847Z" fill="#EB008B"/>
<path d="M54.289 30.4877L49.6083 25.448L44.5789 30.1176L49.2595 35.1573L54.289 30.4877Z" fill="#A22064"/>
<path d="M17.5633 30.442L12.5269 25.7578L7.85375 30.784L12.8902 35.4681L17.5633 30.442Z" fill="#A22064"/>
<path d="M35.3301 48.3821L30.4666 43.5186L25.6137 48.3714L30.4773 53.2349L35.3301 48.3821Z" fill="#A22064"/>
<path d="M35.7904 11.239L30.7539 6.55481L26.0808 11.581L31.1173 16.2651L35.7904 11.239Z" fill="#A22064"/>
<path d="M45.1148 45.3956L45.1089 40.0165L39.7298 40.0106L39.7357 45.3897L45.1148 45.3956Z" fill="#F8EF90"/>
<path d="M20.8002 21.0796L20.7943 15.7004L15.4152 15.6945L15.4211 21.0736L20.8002 21.0796Z" fill="#F8EF90"/>
<path d="M46.1317 20.3912L46.1257 15.0121L40.7466 15.0062L40.7525 20.3853L46.1317 20.3912Z" fill="#F8EF90"/>
<path d="M20.3889 46.1289L20.3829 40.7498L15.0038 40.7438L15.0097 46.123L20.3889 46.1289Z" fill="#F8EF90"/>
</g>
<defs>
<clipPath id="clip0_49_5198">
<rect width="42" height="44" fill="white" transform="translate(31.1127) rotate(45)"/>
</clipPath>
</defs>
</svg>
