<svg width="54" height="62" viewBox="0 0 54 62" fill="none" xmlns="http://www.w3.org/2000/svg">
<path d="M26.8183 19.0723H15.2054C18.2085 16.1418 22.2894 14.3012 26.8183 14.3012C35.2222 14.3012 42.1003 20.5254 43.2749 28.6145H52.9382C51.7273 15.2457 40.514 4.77109 26.8304 4.77109C19.2741 4.77109 12.5292 8.01641 7.75811 13.1266V0L0.589355 7.15664V26.2289H19.6616L26.8183 19.0723ZM33.9749 35.7711L26.8183 42.9277H38.4312C35.428 45.8582 31.3472 47.6988 26.8183 47.6988C18.4144 47.6988 11.5362 41.4746 10.3616 33.3855H0.710449C1.92139 46.7543 13.1347 57.2289 26.8183 57.2289C34.3745 57.2289 41.1194 53.9836 45.8905 48.8734V62L53.0472 54.8434V35.7711H33.9749Z" fill="#A22064"/>
</svg>
