<svg width="1440" height="49" viewBox="0 0 1440 49" fill="none" xmlns="http://www.w3.org/2000/svg">
<g clip-path="url(#clip0_49_4430)">
<g clip-path="url(#clip1_49_4430)">
<path d="M1440.14 1H0V49.05H1440.14V1Z" fill="#414A1F"/>
</g>
<path d="M44.96 5.61H31.07V19.05H44.96V5.61Z" fill="#414A1F" stroke="#A68E31" stroke-width="0.86" stroke-miterlimit="10"/>
<path d="M19.79 30.81H5.90002V44.25H19.79V30.81Z" stroke="#6E6228" stroke-width="0.86" stroke-miterlimit="10"/>
<path d="M19.59 30.81H5.70001V44.25H19.59V30.81Z" stroke="#A68E31" stroke-width="0.86" stroke-miterlimit="10"/>
<path d="M12.3063 33.8061L8.10608 38.0063L12.1649 42.0651L16.3651 37.8649L12.3063 33.8061Z" stroke="#A68E31" stroke-width="0.86" stroke-miterlimit="10"/>
<path d="M44.96 30.81H31.07V44.25H44.96V30.81Z" stroke="#A68E31" stroke-width="0.86" stroke-miterlimit="10"/>
<path d="M38.0927 33.404L33.8925 37.6042L37.9513 41.663L42.1515 37.4628L38.0927 33.404Z" stroke="#A68E31" stroke-width="0.86" stroke-miterlimit="10"/>
<path d="M19.79 5.61H5.90002V19.05H19.79V5.61Z" stroke="#6E6228" stroke-width="0.86" stroke-miterlimit="10"/>
<path d="M19.59 5.61H5.70001V19.05H19.59V5.61Z" stroke="#A68E31" stroke-width="0.86" stroke-miterlimit="10"/>
<path d="M12.7143 8.20422L8.51404 12.4044L12.5728 16.4632L16.773 12.263L12.7143 8.20422Z" stroke="#A68E31" stroke-width="0.86" stroke-miterlimit="10"/>
<path d="M25.5501 17.7635L18.2598 25.0537L25.3097 32.1036L32.6 24.8133L25.5501 17.7635Z" stroke="#A68E31" stroke-width="0.86" stroke-miterlimit="10"/>
<path d="M44.44 24.62L25.1 43.95L6.40002 25.25L25.74 5.91L31.5 11.67L34.91 15.09L38.22 18.4L44.44 24.62Z" fill="#414A1F" stroke="#A68E31" stroke-width="0.86" stroke-miterlimit="10"/>
<path d="M38.5036 7.79509L34.3033 11.9953L38.3621 16.0541L42.5624 11.8539L38.5036 7.79509Z" stroke="#A68E31" stroke-width="0.86" stroke-miterlimit="10"/>
<path d="M12.65 19.05L18.25 25.05L31.07 37.98" stroke="#A68E31" stroke-width="0.86" stroke-miterlimit="10"/>
<path d="M20 12.21L38.22 30.68" stroke="#A68E31" stroke-width="0.86" stroke-miterlimit="10"/>
<path d="M31.5 11.67L12.24 31.09" stroke="#A68E31" stroke-width="0.86" stroke-miterlimit="10"/>
<path d="M38.22 18.4L19.6 37.98" stroke="#A68E31" stroke-width="0.86" stroke-miterlimit="10"/>
<path d="M58.02 9.84L58.25 18.84L63.68 23.83L63.83 15.83L58.02 9.84Z" fill="#EB008B"/>
<path d="M48.99 19.64L57.99 19.11L63.42 24.1L55.46 24.92L48.99 19.64Z" fill="#EB008B"/>
<path d="M70.68 40.47L70.79 32.41L66.11 27.76L65.7 34.91L70.68 40.47Z" fill="#EB008B"/>
<path d="M79.09 32.01L71.03 32.18L66.35 27.54L73.49 27.07L79.09 32.01Z" fill="#EB008B"/>
<path d="M79.4699 20.06L71.0999 19.54L66.0299 24.17L73.4399 24.96L79.4699 20.06Z" fill="#EB008B"/>
<path d="M71.1099 10.89L70.8699 19.27L65.7999 23.9L65.6899 16.46L71.1099 10.89Z" fill="#EB008B"/>
<path d="M50.52 32.22L58.74 32.15L63.37 27.27L56.08 27.01L50.52 32.22Z" fill="#EB008B"/>
<path d="M59.33 40.6L58.98 32.39L63.61 27.51L64.24 34.78L59.33 40.6Z" fill="#EB008B"/>
<path d="M78.5061 12.5417L72.9299 12.3353L72.7235 17.9115L78.2997 18.1179L78.5061 12.5417Z" fill="#A22064"/>
<path d="M57.3964 33.6308L51.8201 33.8333L52.0226 39.4097L57.5989 39.2071L57.3964 33.6308Z" fill="#A22064"/>
<path d="M77.8901 33.73H72.3101V39.31H77.8901V33.73Z" fill="#A22064"/>
<path d="M56.8356 12.1053L51.2593 12.3079L51.4618 17.8842L57.0381 17.6817L56.8356 12.1053Z" fill="#A22064"/>
<path d="M81.7959 26.3898L78.7058 23.2998L75.6158 26.3898L78.7058 29.4799L81.7959 26.3898Z" fill="#F8EF90"/>
<path d="M53.8906 26.3845L50.8005 23.2944L47.7105 26.3845L50.8005 29.4746L53.8906 26.3845Z" fill="#F8EF90"/>
<path d="M68.0273 11.4247L64.9373 8.33462L61.8472 11.4247L64.9373 14.5147L68.0273 11.4247Z" fill="#F8EF90"/>
<path d="M68.0269 41.025L64.9369 37.935L61.8468 41.025L64.9369 44.1151L68.0269 41.025Z" fill="#F8EF90"/>
<path d="M123.81 5.61H109.92V19.05H123.81V5.61Z" fill="#414A1F" stroke="#A68E31" stroke-width="0.86" stroke-miterlimit="10"/>
<path d="M98.64 30.81H84.75V44.25H98.64V30.81Z" stroke="#6E6228" stroke-width="0.86" stroke-miterlimit="10"/>
<path d="M98.44 30.81H84.55V44.25H98.44V30.81Z" stroke="#A68E31" stroke-width="0.86" stroke-miterlimit="10"/>
<path d="M91.1616 33.8007L86.9614 38.0009L91.0202 42.0597L95.2204 37.8595L91.1616 33.8007Z" stroke="#A68E31" stroke-width="0.86" stroke-miterlimit="10"/>
<path d="M123.81 30.81H109.92V44.25H123.81V30.81Z" stroke="#A68E31" stroke-width="0.86" stroke-miterlimit="10"/>
<path d="M116.938 33.3987L112.738 37.5989L116.797 41.6577L120.997 37.4574L116.938 33.3987Z" stroke="#A68E31" stroke-width="0.86" stroke-miterlimit="10"/>
<path d="M98.64 5.61H84.75V19.05H98.64V5.61Z" stroke="#6E6228" stroke-width="0.86" stroke-miterlimit="10"/>
<path d="M98.44 5.61H84.55V19.05H98.44V5.61Z" stroke="#A68E31" stroke-width="0.86" stroke-miterlimit="10"/>
<path d="M91.5696 8.19885L87.3694 12.3991L91.4282 16.4579L95.6284 12.2576L91.5696 8.19885Z" stroke="#A68E31" stroke-width="0.86" stroke-miterlimit="10"/>
<path d="M104.388 17.7652L97.0981 25.0554L104.148 32.1053L111.438 24.815L104.388 17.7652Z" stroke="#A68E31" stroke-width="0.86" stroke-miterlimit="10"/>
<path d="M123.29 24.62L103.95 43.95L85.25 25.25L104.59 5.91L110.34 11.67L113.76 15.09L117.07 18.4L123.29 24.62Z" fill="#414A1F" stroke="#A68E31" stroke-width="0.86" stroke-miterlimit="10"/>
<path d="M117.349 7.78973L113.149 11.9899L117.207 16.0487L121.408 11.8485L117.349 7.78973Z" stroke="#A68E31" stroke-width="0.86" stroke-miterlimit="10"/>
<path d="M91.5 19.05L97.1 25.05L109.92 37.98" stroke="#A68E31" stroke-width="0.86" stroke-miterlimit="10"/>
<path d="M98.8501 12.21L117.07 30.68" stroke="#A68E31" stroke-width="0.86" stroke-miterlimit="10"/>
<path d="M110.34 11.67L91.0901 31.09" stroke="#A68E31" stroke-width="0.86" stroke-miterlimit="10"/>
<path d="M117.07 18.4L98.4401 37.98" stroke="#A68E31" stroke-width="0.86" stroke-miterlimit="10"/>
<path d="M136.87 9.84L137.1 18.84L142.53 23.83L142.68 15.83L136.87 9.84Z" fill="#EB008B"/>
<path d="M127.84 19.64L136.84 19.11L142.27 24.1L134.31 24.92L127.84 19.64Z" fill="#EB008B"/>
<path d="M149.53 40.47L149.64 32.41L144.96 27.76L144.55 34.91L149.53 40.47Z" fill="#EB008B"/>
<path d="M157.94 32.01L149.88 32.18L145.2 27.54L152.34 27.07L157.94 32.01Z" fill="#EB008B"/>
<path d="M158.32 20.06L149.95 19.54L144.88 24.17L152.29 24.96L158.32 20.06Z" fill="#EB008B"/>
<path d="M149.96 10.89L149.72 19.27L144.65 23.9L144.54 16.46L149.96 10.89Z" fill="#EB008B"/>
<path d="M129.37 32.22L137.59 32.15L142.22 27.27L134.92 27.01L129.37 32.22Z" fill="#EB008B"/>
<path d="M138.18 40.6L137.83 32.39L142.46 27.51L143.09 34.78L138.18 40.6Z" fill="#EB008B"/>
<path d="M157.352 12.5386L151.776 12.3321L151.57 17.9083L157.146 18.1147L157.352 12.5386Z" fill="#A22064"/>
<path d="M136.244 33.629L130.668 33.8315L130.871 39.4078L136.447 39.2053L136.244 33.629Z" fill="#A22064"/>
<path d="M156.74 33.73H151.16V39.31H156.74V33.73Z" fill="#A22064"/>
<path d="M135.684 12.1035L130.107 12.306L130.31 17.8823L135.886 17.6798L135.684 12.1035Z" fill="#A22064"/>
<path d="M160.634 26.3781L157.544 23.2881L154.454 26.3781L157.544 29.4682L160.634 26.3781Z" fill="#F8EF90"/>
<path d="M132.736 26.3799L129.646 23.2898L126.556 26.3799L129.646 29.4699L132.736 26.3799Z" fill="#F8EF90"/>
<path d="M146.873 11.42L143.783 8.32999L140.693 11.4201L143.783 14.5101L146.873 11.42Z" fill="#F8EF90"/>
<path d="M146.872 41.0204L143.782 37.9304L140.692 41.0204L143.782 44.1105L146.872 41.0204Z" fill="#F8EF90"/>
<path d="M202.66 5.61H188.77V19.05H202.66V5.61Z" fill="#414A1F" stroke="#A68E31" stroke-width="0.86" stroke-miterlimit="10"/>
<path d="M177.49 30.81H163.6V44.25H177.49V30.81Z" stroke="#6E6228" stroke-width="0.86" stroke-miterlimit="10"/>
<path d="M177.29 30.81H163.4V44.25H177.29V30.81Z" stroke="#A68E31" stroke-width="0.86" stroke-miterlimit="10"/>
<path d="M170.007 33.8053L165.807 38.0055L169.866 42.0643L174.066 37.8641L170.007 33.8053Z" stroke="#A68E31" stroke-width="0.86" stroke-miterlimit="10"/>
<path d="M202.66 30.81H188.77V44.25H202.66V30.81Z" stroke="#A68E31" stroke-width="0.86" stroke-miterlimit="10"/>
<path d="M195.793 33.3933L191.593 37.5935L195.652 41.6523L199.852 37.4521L195.793 33.3933Z" stroke="#A68E31" stroke-width="0.86" stroke-miterlimit="10"/>
<path d="M177.49 5.61H163.6V19.05H177.49V5.61Z" stroke="#6E6228" stroke-width="0.86" stroke-miterlimit="10"/>
<path d="M177.29 5.61H163.4V19.05H177.29V5.61Z" stroke="#A68E31" stroke-width="0.86" stroke-miterlimit="10"/>
<path d="M170.415 8.20348L166.215 12.4037L170.274 16.4625L174.474 12.2623L170.415 8.20348Z" stroke="#A68E31" stroke-width="0.86" stroke-miterlimit="10"/>
<path d="M183.234 17.7698L175.944 25.0601L182.993 32.1099L190.284 24.8196L183.234 17.7698Z" stroke="#A68E31" stroke-width="0.86" stroke-miterlimit="10"/>
<path d="M202.14 24.62L182.8 43.95L164.1 25.25L183.43 5.91L189.19 11.67L192.61 15.09L195.92 18.4L202.14 24.62Z" fill="#414A1F" stroke="#A68E31" stroke-width="0.86" stroke-miterlimit="10"/>
<path d="M196.204 7.79435L192.004 11.9946L196.063 16.0534L200.263 11.8531L196.204 7.79435Z" stroke="#A68E31" stroke-width="0.86" stroke-miterlimit="10"/>
<path d="M170.35 19.05L175.95 25.05L188.77 37.98" stroke="#A68E31" stroke-width="0.86" stroke-miterlimit="10"/>
<path d="M177.7 12.21L195.92 30.68" stroke="#A68E31" stroke-width="0.86" stroke-miterlimit="10"/>
<path d="M189.19 11.67L169.94 31.09" stroke="#A68E31" stroke-width="0.86" stroke-miterlimit="10"/>
<path d="M195.92 18.4L177.29 37.98" stroke="#A68E31" stroke-width="0.86" stroke-miterlimit="10"/>
<path d="M215.72 9.84L215.95 18.84L221.38 23.83L221.53 15.83L215.72 9.84Z" fill="#EB008B"/>
<path d="M206.69 19.64L215.69 19.11L221.12 24.1L213.16 24.92L206.69 19.64Z" fill="#EB008B"/>
<path d="M228.38 40.47L228.49 32.41L223.81 27.76L223.4 34.91L228.38 40.47Z" fill="#EB008B"/>
<path d="M236.79 32.01L228.73 32.18L224.05 27.54L231.19 27.07L236.79 32.01Z" fill="#EB008B"/>
<path d="M237.17 20.06L228.8 19.54L223.73 24.17L231.14 24.96L237.17 20.06Z" fill="#EB008B"/>
<path d="M228.81 10.89L228.57 19.27L223.5 23.9L223.38 16.46L228.81 10.89Z" fill="#EB008B"/>
<path d="M208.22 32.22L216.44 32.15L221.07 27.27L213.77 27.01L208.22 32.22Z" fill="#EB008B"/>
<path d="M217.03 40.6L216.68 32.39L221.31 27.51L221.94 34.78L217.03 40.6Z" fill="#EB008B"/>
<path d="M236.198 12.5454L230.622 12.339L230.416 17.9152L235.992 18.1216L236.198 12.5454Z" fill="#A22064"/>
<path d="M215.102 33.6271L209.526 33.8296L209.729 39.406L215.305 39.2034L215.102 33.6271Z" fill="#A22064"/>
<path d="M235.59 33.73H230.01V39.31H235.59V33.73Z" fill="#A22064"/>
<path d="M214.542 12.1016L208.965 12.3041L209.168 17.8805L214.744 17.6779L214.542 12.1016Z" fill="#A22064"/>
<path d="M239.49 26.3835L236.4 23.2935L233.309 26.3835L236.4 29.4736L239.49 26.3835Z" fill="#F8EF90"/>
<path d="M211.581 26.3852L208.491 23.2952L205.401 26.3852L208.491 29.4753L211.581 26.3852Z" fill="#F8EF90"/>
<path d="M225.728 11.4254L222.638 8.33536L219.548 11.4254L222.638 14.5155L225.728 11.4254Z" fill="#F8EF90"/>
<path d="M225.728 41.0258L222.638 37.9357L219.548 41.0258L222.638 44.1158L225.728 41.0258Z" fill="#F8EF90"/>
<path d="M281.51 5.61H267.62V19.05H281.51V5.61Z" fill="#414A1F" stroke="#A68E31" stroke-width="0.86" stroke-miterlimit="10"/>
<path d="M256.34 30.81H242.45V44.25H256.34V30.81Z" stroke="#6E6228" stroke-width="0.86" stroke-miterlimit="10"/>
<path d="M256.14 30.81H242.25V44.25H256.14V30.81Z" stroke="#A68E31" stroke-width="0.86" stroke-miterlimit="10"/>
<path d="M248.852 33.8L244.652 38.0002L248.711 42.059L252.911 37.8588L248.852 33.8Z" stroke="#A68E31" stroke-width="0.86" stroke-miterlimit="10"/>
<path d="M281.51 30.81H267.62V44.25H281.51V30.81Z" stroke="#A68E31" stroke-width="0.86" stroke-miterlimit="10"/>
<path d="M274.639 33.3979L270.438 37.5981L274.497 41.6569L278.697 37.4567L274.639 33.3979Z" stroke="#A68E31" stroke-width="0.86" stroke-miterlimit="10"/>
<path d="M256.34 5.61H242.45V19.05H256.34V5.61Z" stroke="#6E6228" stroke-width="0.86" stroke-miterlimit="10"/>
<path d="M256.14 5.61H242.25V19.05H256.14V5.61Z" stroke="#A68E31" stroke-width="0.86" stroke-miterlimit="10"/>
<path d="M249.27 8.19811L245.07 12.3983L249.129 16.4571L253.329 12.2569L249.27 8.19811Z" stroke="#A68E31" stroke-width="0.86" stroke-miterlimit="10"/>
<path d="M262.089 17.7644L254.799 25.0547L261.849 32.1045L269.139 24.8143L262.089 17.7644Z" stroke="#A68E31" stroke-width="0.86" stroke-miterlimit="10"/>
<path d="M280.99 24.62L261.65 43.95L242.95 25.25L262.28 5.91L268.04 11.67L271.46 15.09L274.77 18.4L280.99 24.62Z" fill="#414A1F" stroke="#A68E31" stroke-width="0.86" stroke-miterlimit="10"/>
<path d="M275.05 7.78898L270.849 11.9892L274.908 16.048L279.108 11.8478L275.05 7.78898Z" stroke="#A68E31" stroke-width="0.86" stroke-miterlimit="10"/>
<path d="M249.2 19.05L254.8 25.05L267.62 37.98" stroke="#A68E31" stroke-width="0.86" stroke-miterlimit="10"/>
<path d="M256.55 12.21L274.77 30.68" stroke="#A68E31" stroke-width="0.86" stroke-miterlimit="10"/>
<path d="M268.04 11.67L248.79 31.09" stroke="#A68E31" stroke-width="0.86" stroke-miterlimit="10"/>
<path d="M274.77 18.4L256.14 37.98" stroke="#A68E31" stroke-width="0.86" stroke-miterlimit="10"/>
<path d="M294.57 9.84L294.8 18.84L300.22 23.83L300.38 15.83L294.57 9.84Z" fill="#EB008B"/>
<path d="M285.54 19.64L294.54 19.11L299.97 24.1L292.01 24.92L285.54 19.64Z" fill="#EB008B"/>
<path d="M307.23 40.47L307.34 32.41L302.66 27.76L302.25 34.91L307.23 40.47Z" fill="#EB008B"/>
<path d="M315.63 32.01L307.58 32.18L302.9 27.54L310.04 27.07L315.63 32.01Z" fill="#EB008B"/>
<path d="M316.02 20.06L307.65 19.54L302.58 24.17L309.99 24.96L316.02 20.06Z" fill="#EB008B"/>
<path d="M307.66 10.89L307.42 19.27L302.35 23.9L302.23 16.46L307.66 10.89Z" fill="#EB008B"/>
<path d="M287.07 32.22L295.29 32.15L299.92 27.27L292.62 27.01L287.07 32.22Z" fill="#EB008B"/>
<path d="M295.88 40.6L295.53 32.39L300.16 27.51L300.79 34.78L295.88 40.6Z" fill="#EB008B"/>
<path d="M315.054 12.5423L309.478 12.3359L309.272 17.9121L314.848 18.1185L315.054 12.5423Z" fill="#A22064"/>
<path d="M293.95 33.6253L288.374 33.8278L288.577 39.4041L294.153 39.2016L293.95 33.6253Z" fill="#A22064"/>
<path d="M314.44 33.73H308.86V39.31H314.44V33.73Z" fill="#A22064"/>
<path d="M293.39 12.0998L287.813 12.3023L288.016 17.8786L293.592 17.6761L293.39 12.0998Z" fill="#A22064"/>
<path d="M318.335 26.3789L315.245 23.2888L312.155 26.3789L315.245 29.4689L318.335 26.3789Z" fill="#F8EF90"/>
<path d="M290.437 26.3806L287.347 23.2906L284.257 26.3806L287.347 29.4707L290.437 26.3806Z" fill="#F8EF90"/>
<path d="M304.573 11.4208L301.483 8.33072L298.393 11.4208L301.483 14.5109L304.573 11.4208Z" fill="#F8EF90"/>
<path d="M304.573 41.0212L301.483 37.9311L298.393 41.0211L301.483 44.1112L304.573 41.0212Z" fill="#F8EF90"/>
<path d="M360.36 5.61H346.47V19.05H360.36V5.61Z" fill="#414A1F" stroke="#A68E31" stroke-width="0.86" stroke-miterlimit="10"/>
<path d="M335.19 30.81H321.3V44.25H335.19V30.81Z" stroke="#6E6228" stroke-width="0.86" stroke-miterlimit="10"/>
<path d="M334.99 30.81H321.1V44.25H334.99V30.81Z" stroke="#A68E31" stroke-width="0.86" stroke-miterlimit="10"/>
<path d="M327.708 33.8046L323.508 38.0048L327.566 42.0636L331.767 37.8634L327.708 33.8046Z" stroke="#A68E31" stroke-width="0.86" stroke-miterlimit="10"/>
<path d="M360.36 30.81H346.47V44.25H360.36V30.81Z" stroke="#A68E31" stroke-width="0.86" stroke-miterlimit="10"/>
<path d="M353.484 33.3925L349.284 37.5927L353.343 41.6515L357.543 37.4513L353.484 33.3925Z" stroke="#A68E31" stroke-width="0.86" stroke-miterlimit="10"/>
<path d="M335.19 5.61H321.3V19.05H335.19V5.61Z" stroke="#6E6228" stroke-width="0.86" stroke-miterlimit="10"/>
<path d="M334.99 5.61H321.1V19.05H334.99V5.61Z" stroke="#A68E31" stroke-width="0.86" stroke-miterlimit="10"/>
<path d="M328.116 8.20275L323.916 12.403L327.974 16.4618L332.175 12.2615L328.116 8.20275Z" stroke="#A68E31" stroke-width="0.86" stroke-miterlimit="10"/>
<path d="M340.935 17.769L333.644 25.0593L340.694 32.1092L347.984 24.8189L340.935 17.769Z" stroke="#A68E31" stroke-width="0.86" stroke-miterlimit="10"/>
<path d="M359.84 24.62L340.5 43.95L321.8 25.25L341.13 5.91L346.89 11.67L350.31 15.09L353.62 18.4L359.84 24.62Z" fill="#414A1F" stroke="#A68E31" stroke-width="0.86" stroke-miterlimit="10"/>
<path d="M353.905 7.79363L349.705 11.9938L353.764 16.0526L357.964 11.8524L353.905 7.79363Z" stroke="#A68E31" stroke-width="0.86" stroke-miterlimit="10"/>
<path d="M328.05 19.05L333.65 25.05L346.47 37.98" stroke="#A68E31" stroke-width="0.86" stroke-miterlimit="10"/>
<path d="M335.4 12.21L353.62 30.68" stroke="#A68E31" stroke-width="0.86" stroke-miterlimit="10"/>
<path d="M346.89 11.67L327.64 31.09" stroke="#A68E31" stroke-width="0.86" stroke-miterlimit="10"/>
<path d="M353.62 18.4L334.99 37.98" stroke="#A68E31" stroke-width="0.86" stroke-miterlimit="10"/>
<path d="M373.42 9.84L373.65 18.84L379.07 23.83L379.23 15.83L373.42 9.84Z" fill="#EB008B"/>
<path d="M364.39 19.64L373.39 19.11L378.82 24.1L370.86 24.92L364.39 19.64Z" fill="#EB008B"/>
<path d="M386.08 40.47L386.19 32.41L381.51 27.76L381.1 34.91L386.08 40.47Z" fill="#EB008B"/>
<path d="M394.48 32.01L386.43 32.18L381.75 27.54L388.89 27.07L394.48 32.01Z" fill="#EB008B"/>
<path d="M394.87 20.06L386.5 19.54L381.43 24.17L388.83 24.96L394.87 20.06Z" fill="#EB008B"/>
<path d="M386.51 10.89L386.27 19.27L381.2 23.9L381.08 16.46L386.51 10.89Z" fill="#EB008B"/>
<path d="M365.92 32.22L374.14 32.15L378.77 27.27L371.47 27.01L365.92 32.22Z" fill="#EB008B"/>
<path d="M374.73 40.6L374.37 32.39L379 27.51L379.64 34.78L374.73 40.6Z" fill="#EB008B"/>
<path d="M393.9 12.5391L388.324 12.3327L388.118 17.9089L393.694 18.1153L393.9 12.5391Z" fill="#A22064"/>
<path d="M372.798 33.6234L367.222 33.8259L367.425 39.4023L373.001 39.1997L372.798 33.6234Z" fill="#A22064"/>
<path d="M393.28 33.73H387.7V39.31H393.28V33.73Z" fill="#A22064"/>
<path d="M372.238 12.0979L366.661 12.3004L366.864 17.8768L372.44 17.6742L372.238 12.0979Z" fill="#A22064"/>
<path d="M397.19 26.3843L394.1 23.2942L391.01 26.3843L394.1 29.4743L397.19 26.3843Z" fill="#F8EF90"/>
<path d="M369.282 26.386L366.192 23.2959L363.102 26.386L366.192 29.476L369.282 26.386Z" fill="#F8EF90"/>
<path d="M383.419 11.4261L380.329 8.33609L377.239 11.4261L380.329 14.5162L383.419 11.4261Z" fill="#F8EF90"/>
<path d="M383.428 41.0265L380.338 37.9364L377.248 41.0265L380.338 44.1166L383.428 41.0265Z" fill="#F8EF90"/>
<path d="M439.21 5.61H425.32V19.05H439.21V5.61Z" fill="#414A1F" stroke="#A68E31" stroke-width="0.86" stroke-miterlimit="10"/>
<path d="M414.04 30.81H400.15V44.25H414.04V30.81Z" stroke="#6E6228" stroke-width="0.86" stroke-miterlimit="10"/>
<path d="M413.84 30.81H399.95V44.25H413.84V30.81Z" stroke="#A68E31" stroke-width="0.86" stroke-miterlimit="10"/>
<path d="M406.553 33.7992L402.353 37.9994L406.412 42.0582L410.612 37.858L406.553 33.7992Z" stroke="#A68E31" stroke-width="0.86" stroke-miterlimit="10"/>
<path d="M439.21 30.81H425.32V44.25H439.21V30.81Z" stroke="#A68E31" stroke-width="0.86" stroke-miterlimit="10"/>
<path d="M432.332 33.4042L428.132 37.6044L432.191 41.6632L436.391 37.463L432.332 33.4042Z" stroke="#A68E31" stroke-width="0.86" stroke-miterlimit="10"/>
<path d="M414.04 5.61H400.15V19.05H414.04V5.61Z" stroke="#6E6228" stroke-width="0.86" stroke-miterlimit="10"/>
<path d="M413.84 5.61H399.95V19.05H413.84V5.61Z" stroke="#A68E31" stroke-width="0.86" stroke-miterlimit="10"/>
<path d="M406.971 8.19737L402.771 12.3976L406.83 16.4564L411.03 12.2562L406.971 8.19737Z" stroke="#A68E31" stroke-width="0.86" stroke-miterlimit="10"/>
<path d="M419.79 17.7637L412.5 25.0539L419.549 32.1038L426.84 24.8135L419.79 17.7637Z" stroke="#A68E31" stroke-width="0.86" stroke-miterlimit="10"/>
<path d="M438.69 24.62L419.35 43.95L400.64 25.25L419.98 5.91L425.74 11.67L429.16 15.09L432.47 18.4L438.69 24.62Z" fill="#414A1F" stroke="#A68E31" stroke-width="0.86" stroke-miterlimit="10"/>
<path d="M432.75 7.78825L428.55 11.9885L432.609 16.0473L436.809 11.847L432.75 7.78825Z" stroke="#A68E31" stroke-width="0.86" stroke-miterlimit="10"/>
<path d="M406.89 19.05L412.5 25.05L425.32 37.98" stroke="#A68E31" stroke-width="0.86" stroke-miterlimit="10"/>
<path d="M414.24 12.21L432.47 30.68" stroke="#A68E31" stroke-width="0.86" stroke-miterlimit="10"/>
<path d="M425.74 11.67L406.49 31.09" stroke="#A68E31" stroke-width="0.86" stroke-miterlimit="10"/>
<path d="M432.47 18.4L413.84 37.98" stroke="#A68E31" stroke-width="0.86" stroke-miterlimit="10"/>
<path d="M452.27 9.84L452.49 18.84L457.92 23.83L458.08 15.83L452.27 9.84Z" fill="#EB008B"/>
<path d="M443.24 19.64L452.24 19.11L457.66 24.1L449.71 24.92L443.24 19.64Z" fill="#EB008B"/>
<path d="M464.93 40.47L465.04 32.41L460.36 27.76L459.95 34.91L464.93 40.47Z" fill="#EB008B"/>
<path d="M473.33 32.01L465.28 32.18L460.6 27.54L467.74 27.07L473.33 32.01Z" fill="#EB008B"/>
<path d="M473.72 20.06L465.35 19.54L460.28 24.17L467.68 24.96L473.72 20.06Z" fill="#EB008B"/>
<path d="M465.36 10.89L465.12 19.27L460.05 23.9L459.93 16.46L465.36 10.89Z" fill="#EB008B"/>
<path d="M444.77 32.22L452.99 32.15L457.62 27.27L450.32 27.01L444.77 32.22Z" fill="#EB008B"/>
<path d="M453.58 40.6L453.22 32.39L457.85 27.51L458.49 34.78L453.58 40.6Z" fill="#EB008B"/>
<path d="M472.756 12.536L467.18 12.3296L466.974 17.9058L472.55 18.1122L472.756 12.536Z" fill="#A22064"/>
<path d="M451.647 33.6216L446.07 33.8241L446.273 39.4004L451.849 39.1979L451.647 33.6216Z" fill="#A22064"/>
<path d="M472.13 33.73H466.55V39.31H472.13V33.73Z" fill="#A22064"/>
<path d="M451.086 12.0961L445.51 12.2986L445.712 17.8749L451.288 17.6724L451.086 12.0961Z" fill="#A22064"/>
<path d="M476.036 26.3896L472.946 23.2996L469.856 26.3896L472.946 29.4797L476.036 26.3896Z" fill="#F8EF90"/>
<path d="M448.137 26.3814L445.047 23.2913L441.957 26.3813L445.047 29.4714L448.137 26.3814Z" fill="#F8EF90"/>
<path d="M462.274 11.4215L459.184 8.33147L456.094 11.4215L459.184 14.5116L462.274 11.4215Z" fill="#F8EF90"/>
<path d="M462.274 41.0219L459.184 37.9318L456.094 41.0219L459.184 44.1119L462.274 41.0219Z" fill="#F8EF90"/>
<path d="M526.59 5.61H512.7V19.05H526.59V5.61Z" fill="#414A1F" stroke="#A68E31" stroke-width="0.86" stroke-miterlimit="10"/>
<path d="M501.42 30.81H487.53V44.25H501.42V30.81Z" stroke="#6E6228" stroke-width="0.86" stroke-miterlimit="10"/>
<path d="M501.23 30.81H487.34V44.25H501.23V30.81Z" stroke="#A68E31" stroke-width="0.86" stroke-miterlimit="10"/>
<path d="M493.947 33.7952L489.747 37.9954L493.806 42.0542L498.006 37.854L493.947 33.7952Z" stroke="#A68E31" stroke-width="0.86" stroke-miterlimit="10"/>
<path d="M526.59 30.81H512.7V44.25H526.59V30.81Z" stroke="#A68E31" stroke-width="0.86" stroke-miterlimit="10"/>
<path d="M519.716 33.4002L515.516 37.6004L519.575 41.6592L523.775 37.459L519.716 33.4002Z" stroke="#A68E31" stroke-width="0.86" stroke-miterlimit="10"/>
<path d="M501.42 5.61H487.53V19.05H501.42V5.61Z" stroke="#6E6228" stroke-width="0.86" stroke-miterlimit="10"/>
<path d="M501.23 5.61H487.34V19.05H501.23V5.61Z" stroke="#A68E31" stroke-width="0.86" stroke-miterlimit="10"/>
<path d="M494.348 8.20038L490.148 12.4006L494.207 16.4594L498.407 12.2592L494.348 8.20038Z" stroke="#A68E31" stroke-width="0.86" stroke-miterlimit="10"/>
<path d="M507.174 17.7596L499.884 25.0499L506.934 32.0998L514.224 24.8095L507.174 17.7596Z" stroke="#A68E31" stroke-width="0.86" stroke-miterlimit="10"/>
<path d="M526.07 24.62L506.74 43.95L488.03 25.25L507.37 5.91L513.13 11.67L516.55 15.09L519.86 18.4L526.07 24.62Z" fill="#414A1F" stroke="#A68E31" stroke-width="0.86" stroke-miterlimit="10"/>
<path d="M520.144 7.7842L515.944 11.9844L520.003 16.0432L524.203 11.843L520.144 7.7842Z" stroke="#A68E31" stroke-width="0.86" stroke-miterlimit="10"/>
<path d="M494.28 19.05L499.88 25.05L512.7 37.98" stroke="#A68E31" stroke-width="0.86" stroke-miterlimit="10"/>
<path d="M501.63 12.21L519.86 30.68" stroke="#A68E31" stroke-width="0.86" stroke-miterlimit="10"/>
<path d="M513.13 11.67L493.88 31.09" stroke="#A68E31" stroke-width="0.86" stroke-miterlimit="10"/>
<path d="M519.86 18.4L501.23 37.98" stroke="#A68E31" stroke-width="0.86" stroke-miterlimit="10"/>
<path d="M539.66 9.84L539.88 18.84L545.31 23.83L545.46 15.83L539.66 9.84Z" fill="#EB008B"/>
<path d="M530.63 19.64L539.62 19.11L545.05 24.1L537.09 24.92L530.63 19.64Z" fill="#EB008B"/>
<path d="M552.32 40.47L552.42 32.41L547.74 27.76L547.33 34.91L552.32 40.47Z" fill="#EB008B"/>
<path d="M560.72 32.01L552.66 32.18L547.98 27.54L555.12 27.07L560.72 32.01Z" fill="#EB008B"/>
<path d="M561.11 20.06L552.73 19.54L547.66 24.17L555.07 24.96L561.11 20.06Z" fill="#EB008B"/>
<path d="M552.74 10.89L552.51 19.27L547.44 23.9L547.32 16.46L552.74 10.89Z" fill="#EB008B"/>
<path d="M532.15 32.22L540.37 32.15L545 27.27L537.71 27.01L532.15 32.22Z" fill="#EB008B"/>
<path d="M540.97 40.6L540.61 32.39L545.24 27.51L545.88 34.78L540.97 40.6Z" fill="#EB008B"/>
<path d="M560.137 12.5384L554.56 12.332L554.354 17.9082L559.93 18.1146L560.137 12.5384Z" fill="#A22064"/>
<path d="M539.039 33.6098L533.463 33.8123L533.665 39.3886L539.242 39.1861L539.039 33.6098Z" fill="#A22064"/>
<path d="M559.52 33.73H553.94V39.31H559.52V33.73Z" fill="#A22064"/>
<path d="M538.478 12.0943L532.902 12.2968L533.105 17.8731L538.681 17.6706L538.478 12.0943Z" fill="#A22064"/>
<path d="M563.43 26.3837L560.34 23.2937L557.25 26.3837L560.34 29.4738L563.43 26.3837Z" fill="#F8EF90"/>
<path d="M535.521 26.3854L532.431 23.2954L529.341 26.3854L532.431 29.4755L535.521 26.3854Z" fill="#F8EF90"/>
<path d="M549.658 11.4256L546.568 8.33554L543.478 11.4256L546.568 14.5157L549.658 11.4256Z" fill="#F8EF90"/>
<path d="M549.668 41.026L546.578 37.9359L543.488 41.026L546.578 44.116L549.668 41.026Z" fill="#F8EF90"/>
<path d="M605.44 5.61H591.55V19.05H605.44V5.61Z" fill="#414A1F" stroke="#A68E31" stroke-width="0.86" stroke-miterlimit="10"/>
<path d="M580.27 30.81H566.38V44.25H580.27V30.81Z" stroke="#6E6228" stroke-width="0.86" stroke-miterlimit="10"/>
<path d="M580.07 30.81H566.18V44.25H580.07V30.81Z" stroke="#A68E31" stroke-width="0.86" stroke-miterlimit="10"/>
<path d="M572.793 33.7998L568.592 38L572.651 42.0588L576.851 37.8586L572.793 33.7998Z" stroke="#A68E31" stroke-width="0.86" stroke-miterlimit="10"/>
<path d="M605.44 30.81H591.55V44.25H605.44V30.81Z" stroke="#A68E31" stroke-width="0.86" stroke-miterlimit="10"/>
<path d="M598.572 33.4048L594.372 37.605L598.43 41.6638L602.631 37.4636L598.572 33.4048Z" stroke="#A68E31" stroke-width="0.86" stroke-miterlimit="10"/>
<path d="M580.27 5.61H566.38V19.05H580.27V5.61Z" stroke="#6E6228" stroke-width="0.86" stroke-miterlimit="10"/>
<path d="M580.07 5.61H566.18V19.05H580.07V5.61Z" stroke="#A68E31" stroke-width="0.86" stroke-miterlimit="10"/>
<path d="M573.193 8.20503L568.993 12.4053L573.052 16.464L577.252 12.2638L573.193 8.20503Z" stroke="#A68E31" stroke-width="0.86" stroke-miterlimit="10"/>
<path d="M586.029 17.7643L578.739 25.0545L585.789 32.1044L593.079 24.8141L586.029 17.7643Z" stroke="#A68E31" stroke-width="0.86" stroke-miterlimit="10"/>
<path d="M604.92 24.62L585.58 43.95L566.88 25.25L586.22 5.91L591.98 11.67L595.39 15.09L598.7 18.4L604.92 24.62Z" fill="#414A1F" stroke="#A68E31" stroke-width="0.86" stroke-miterlimit="10"/>
<path d="M598.99 7.78881L594.79 11.989L598.848 16.0478L603.049 11.8476L598.99 7.78881Z" stroke="#A68E31" stroke-width="0.86" stroke-miterlimit="10"/>
<path d="M573.13 19.05L578.73 25.05L591.55 37.98" stroke="#A68E31" stroke-width="0.86" stroke-miterlimit="10"/>
<path d="M580.48 12.21L598.7 30.68" stroke="#A68E31" stroke-width="0.86" stroke-miterlimit="10"/>
<path d="M591.98 11.67L572.73 31.09" stroke="#A68E31" stroke-width="0.86" stroke-miterlimit="10"/>
<path d="M598.7 18.4L580.08 37.98" stroke="#A68E31" stroke-width="0.86" stroke-miterlimit="10"/>
<path d="M618.51 9.84L618.73 18.84L624.16 23.83L624.31 15.83L618.51 9.84Z" fill="#EB008B"/>
<path d="M609.48 19.64L618.47 19.11L623.9 24.1L615.94 24.92L609.48 19.64Z" fill="#EB008B"/>
<path d="M631.17 40.47L631.27 32.41L626.59 27.76L626.18 34.91L631.17 40.47Z" fill="#EB008B"/>
<path d="M639.57 32.01L631.51 32.18L626.83 27.54L633.97 27.07L639.57 32.01Z" fill="#EB008B"/>
<path d="M639.96 20.06L631.58 19.54L626.51 24.17L633.92 24.96L639.96 20.06Z" fill="#EB008B"/>
<path d="M631.59 10.89L631.36 19.27L626.29 23.9L626.17 16.46L631.59 10.89Z" fill="#EB008B"/>
<path d="M611 32.22L619.22 32.15L623.85 27.27L616.56 27.01L611 32.22Z" fill="#EB008B"/>
<path d="M619.82 40.6L619.46 32.39L624.09 27.51L624.73 34.78L619.82 40.6Z" fill="#EB008B"/>
<path d="M638.982 12.5353L633.406 12.3289L633.2 17.905L638.776 18.1115L638.982 12.5353Z" fill="#A22064"/>
<path d="M617.887 33.6079L612.311 33.8104L612.513 39.3868L618.089 39.1842L617.887 33.6079Z" fill="#A22064"/>
<path d="M638.37 33.73H632.79V39.31H638.37V33.73Z" fill="#A22064"/>
<path d="M617.326 12.0924L611.75 12.2949L611.953 17.8713L617.529 17.6687L617.326 12.0924Z" fill="#A22064"/>
<path d="M642.275 26.3891L639.185 23.299L636.095 26.3891L639.185 29.4791L642.275 26.3891Z" fill="#F8EF90"/>
<path d="M614.377 26.3908L611.287 23.3007L608.197 26.3908L611.287 29.4808L614.377 26.3908Z" fill="#F8EF90"/>
<path d="M628.514 11.4309L625.424 8.34089L622.334 11.4309L625.424 14.521L628.514 11.4309Z" fill="#F8EF90"/>
<path d="M628.513 41.0313L625.423 37.9413L622.333 41.0313L625.423 44.1214L628.513 41.0313Z" fill="#F8EF90"/>
<path d="M684.29 5.61H670.4V19.05H684.29V5.61Z" fill="#414A1F" stroke="#A68E31" stroke-width="0.86" stroke-miterlimit="10"/>
<path d="M659.12 30.81H645.23V44.25H659.12V30.81Z" stroke="#6E6228" stroke-width="0.86" stroke-miterlimit="10"/>
<path d="M658.92 30.81H645.03V44.25H658.92V30.81Z" stroke="#A68E31" stroke-width="0.86" stroke-miterlimit="10"/>
<path d="M651.648 33.7944L647.448 37.9946L651.507 42.0534L655.707 37.8532L651.648 33.7944Z" stroke="#A68E31" stroke-width="0.86" stroke-miterlimit="10"/>
<path d="M684.29 30.81H670.4V44.25H684.29V30.81Z" stroke="#A68E31" stroke-width="0.86" stroke-miterlimit="10"/>
<path d="M677.417 33.3994L673.217 37.5996L677.276 41.6584L681.476 37.4582L677.417 33.3994Z" stroke="#A68E31" stroke-width="0.86" stroke-miterlimit="10"/>
<path d="M659.12 5.61H645.23V19.05H659.12V5.61Z" stroke="#6E6228" stroke-width="0.86" stroke-miterlimit="10"/>
<path d="M658.92 5.61H645.03V19.05H658.92V5.61Z" stroke="#A68E31" stroke-width="0.86" stroke-miterlimit="10"/>
<path d="M652.049 8.19963L647.849 12.3998L651.907 16.4586L656.108 12.2584L652.049 8.19963Z" stroke="#A68E31" stroke-width="0.86" stroke-miterlimit="10"/>
<path d="M664.875 17.7589L657.584 25.0492L664.634 32.099L671.925 24.8087L664.875 17.7589Z" stroke="#A68E31" stroke-width="0.86" stroke-miterlimit="10"/>
<path d="M683.77 24.62L664.43 43.95L645.73 25.25L665.07 5.91L670.83 11.67L674.24 15.09L677.55 18.4L683.77 24.62Z" fill="#414A1F" stroke="#A68E31" stroke-width="0.86" stroke-miterlimit="10"/>
<path d="M677.845 7.78346L673.645 11.9837L677.704 16.0425L681.904 11.8422L677.845 7.78346Z" stroke="#A68E31" stroke-width="0.86" stroke-miterlimit="10"/>
<path d="M651.98 19.05L657.58 25.05L670.4 37.98" stroke="#A68E31" stroke-width="0.86" stroke-miterlimit="10"/>
<path d="M659.33 12.21L677.55 30.68" stroke="#A68E31" stroke-width="0.86" stroke-miterlimit="10"/>
<path d="M670.83 11.67L651.58 31.09" stroke="#A68E31" stroke-width="0.86" stroke-miterlimit="10"/>
<path d="M677.55 18.4L658.93 37.98" stroke="#A68E31" stroke-width="0.86" stroke-miterlimit="10"/>
<path d="M697.35 9.84L697.58 18.84L703.01 23.83L703.16 15.83L697.35 9.84Z" fill="#EB008B"/>
<path d="M688.33 19.64L697.32 19.11L702.75 24.1L694.79 24.92L688.33 19.64Z" fill="#EB008B"/>
<path d="M710.02 40.47L710.12 32.41L705.44 27.76L705.03 34.91L710.02 40.47Z" fill="#EB008B"/>
<path d="M718.42 32.01L710.36 32.18L705.68 27.54L712.82 27.07L718.42 32.01Z" fill="#EB008B"/>
<path d="M718.81 20.06L710.43 19.54L705.36 24.17L712.77 24.96L718.81 20.06Z" fill="#EB008B"/>
<path d="M710.44 10.89L710.21 19.27L705.14 23.9L705.02 16.46L710.44 10.89Z" fill="#EB008B"/>
<path d="M689.85 32.22L698.07 32.15L702.7 27.27L695.41 27.01L689.85 32.22Z" fill="#EB008B"/>
<path d="M698.66 40.6L698.31 32.39L702.94 27.51L703.58 34.78L698.66 40.6Z" fill="#EB008B"/>
<path d="M717.829 12.5321L712.252 12.3257L712.046 17.9019L717.622 18.1083L717.829 12.5321Z" fill="#A22064"/>
<path d="M696.735 33.6061L691.159 33.8086L691.361 39.3849L696.938 39.1824L696.735 33.6061Z" fill="#A22064"/>
<path d="M717.22 33.73H711.64V39.31H717.22V33.73Z" fill="#A22064"/>
<path d="M696.174 12.0906L690.598 12.2931L690.801 17.8694L696.377 17.6669L696.174 12.0906Z" fill="#A22064"/>
<path d="M721.12 26.3844L718.03 23.2944L714.94 26.3844L718.03 29.4745L721.12 26.3844Z" fill="#F8EF90"/>
<path d="M693.222 26.3862L690.132 23.2961L687.042 26.3862L690.132 29.4762L693.222 26.3862Z" fill="#F8EF90"/>
<path d="M707.352 11.4193L704.262 8.32921L701.172 11.4193L704.262 14.5093L707.352 11.4193Z" fill="#F8EF90"/>
<path d="M707.352 41.0196L704.261 37.9296L701.171 41.0196L704.261 44.1097L707.352 41.0196Z" fill="#F8EF90"/>
<path d="M763.14 5.61H749.25V19.05H763.14V5.61Z" fill="#414A1F" stroke="#A68E31" stroke-width="0.86" stroke-miterlimit="10"/>
<path d="M737.97 30.81H724.08V44.25H737.97V30.81Z" stroke="#6E6228" stroke-width="0.86" stroke-miterlimit="10"/>
<path d="M737.77 30.81H723.88V44.25H737.77V30.81Z" stroke="#A68E31" stroke-width="0.86" stroke-miterlimit="10"/>
<path d="M730.486 33.8061L726.286 38.0063L730.345 42.0651L734.545 37.8649L730.486 33.8061Z" stroke="#A68E31" stroke-width="0.86" stroke-miterlimit="10"/>
<path d="M763.14 30.81H749.25V44.25H763.14V30.81Z" stroke="#A68E31" stroke-width="0.86" stroke-miterlimit="10"/>
<path d="M756.272 33.4041L752.072 37.6043L756.131 41.6631L760.331 37.4629L756.272 33.4041Z" stroke="#A68E31" stroke-width="0.86" stroke-miterlimit="10"/>
<path d="M737.97 5.61H724.08V19.05H737.97V5.61Z" stroke="#6E6228" stroke-width="0.86" stroke-miterlimit="10"/>
<path d="M737.77 5.61H723.88V19.05H737.77V5.61Z" stroke="#A68E31" stroke-width="0.86" stroke-miterlimit="10"/>
<path d="M730.894 8.20429L726.694 12.4045L730.753 16.4633L734.953 12.2631L730.894 8.20429Z" stroke="#A68E31" stroke-width="0.86" stroke-miterlimit="10"/>
<path d="M743.73 17.7635L736.44 25.0538L743.49 32.1036L750.78 24.8134L743.73 17.7635Z" stroke="#A68E31" stroke-width="0.86" stroke-miterlimit="10"/>
<path d="M762.62 24.62L743.28 43.95L724.58 25.25L743.92 5.91L749.68 11.67L753.09 15.09L756.4 18.4L762.62 24.62Z" fill="#414A1F" stroke="#A68E31" stroke-width="0.86" stroke-miterlimit="10"/>
<path d="M756.683 7.79514L752.483 11.9954L756.542 16.0541L760.742 11.8539L756.683 7.79514Z" stroke="#A68E31" stroke-width="0.86" stroke-miterlimit="10"/>
<path d="M730.83 19.05L736.43 25.05L749.25 37.98" stroke="#A68E31" stroke-width="0.86" stroke-miterlimit="10"/>
<path d="M738.18 12.21L756.4 30.68" stroke="#A68E31" stroke-width="0.86" stroke-miterlimit="10"/>
<path d="M749.68 11.67L730.42 31.09" stroke="#A68E31" stroke-width="0.86" stroke-miterlimit="10"/>
<path d="M756.4 18.4L737.78 37.98" stroke="#A68E31" stroke-width="0.86" stroke-miterlimit="10"/>
<path d="M776.2 9.84L776.43 18.84L781.86 23.83L782.01 15.83L776.2 9.84Z" fill="#EB008B"/>
<path d="M767.17 19.64L776.17 19.11L781.6 24.1L773.64 24.92L767.17 19.64Z" fill="#EB008B"/>
<path d="M788.86 40.47L788.97 32.41L784.29 27.76L783.88 34.91L788.86 40.47Z" fill="#EB008B"/>
<path d="M797.27 32.01L789.21 32.18L784.53 27.54L791.67 27.07L797.27 32.01Z" fill="#EB008B"/>
<path d="M797.66 20.06L789.28 19.54L784.21 24.17L791.62 24.96L797.66 20.06Z" fill="#EB008B"/>
<path d="M789.29 10.89L789.06 19.27L783.99 23.9L783.87 16.46L789.29 10.89Z" fill="#EB008B"/>
<path d="M768.7 32.22L776.92 32.15L781.55 27.27L774.26 27.01L768.7 32.22Z" fill="#EB008B"/>
<path d="M777.51 40.6L777.16 32.39L781.79 27.51L782.43 34.78L777.51 40.6Z" fill="#EB008B"/>
<path d="M796.685 12.529L791.108 12.3226L790.902 17.8988L796.478 18.1052L796.685 12.529Z" fill="#A22064"/>
<path d="M775.573 33.6046L769.997 33.8071L770.199 39.3834L775.776 39.1809L775.573 33.6046Z" fill="#A22064"/>
<path d="M796.07 33.73H790.49V39.31H796.07V33.73Z" fill="#A22064"/>
<path d="M775.022 12.0887L769.446 12.2912L769.649 17.8676L775.225 17.665L775.022 12.0887Z" fill="#A22064"/>
<path d="M799.976 26.3898L796.886 23.2998L793.796 26.3898L796.886 29.4799L799.976 26.3898Z" fill="#F8EF90"/>
<path d="M772.078 26.3915L768.988 23.3015L765.897 26.3915L768.988 29.4816L772.078 26.3915Z" fill="#F8EF90"/>
<path d="M786.207 11.4246L783.117 8.33456L780.027 11.4246L783.117 14.5147L786.207 11.4246Z" fill="#F8EF90"/>
<path d="M786.207 41.025L783.117 37.9349L780.027 41.025L783.117 44.115L786.207 41.025Z" fill="#F8EF90"/>
<path d="M841.99 5.61H828.1V19.05H841.99V5.61Z" fill="#414A1F" stroke="#A68E31" stroke-width="0.86" stroke-miterlimit="10"/>
<path d="M816.82 30.81H802.93V44.25H816.82V30.81Z" stroke="#6E6228" stroke-width="0.86" stroke-miterlimit="10"/>
<path d="M816.62 30.81H802.73V44.25H816.62V30.81Z" stroke="#A68E31" stroke-width="0.86" stroke-miterlimit="10"/>
<path d="M809.342 33.8008L805.141 38.001L809.2 42.0598L813.4 37.8596L809.342 33.8008Z" stroke="#A68E31" stroke-width="0.86" stroke-miterlimit="10"/>
<path d="M841.99 30.81H828.1V44.25H841.99V30.81Z" stroke="#A68E31" stroke-width="0.86" stroke-miterlimit="10"/>
<path d="M835.118 33.3987L830.918 37.5989L834.977 41.6577L839.177 37.4575L835.118 33.3987Z" stroke="#A68E31" stroke-width="0.86" stroke-miterlimit="10"/>
<path d="M816.82 5.61H802.93V19.05H816.82V5.61Z" stroke="#6E6228" stroke-width="0.86" stroke-miterlimit="10"/>
<path d="M816.62 5.61H802.73V19.05H816.62V5.61Z" stroke="#A68E31" stroke-width="0.86" stroke-miterlimit="10"/>
<path d="M809.75 8.19889L805.549 12.3991L809.608 16.4579L813.808 12.2577L809.75 8.19889Z" stroke="#A68E31" stroke-width="0.86" stroke-miterlimit="10"/>
<path d="M822.575 17.7581L815.285 25.0484L822.335 32.0983L829.625 24.808L822.575 17.7581Z" stroke="#A68E31" stroke-width="0.86" stroke-miterlimit="10"/>
<path d="M841.47 24.62L822.13 43.95L803.43 25.25L822.77 5.91L828.53 11.67L831.94 15.09L835.25 18.4L841.47 24.62Z" fill="#414A1F" stroke="#A68E31" stroke-width="0.86" stroke-miterlimit="10"/>
<path d="M835.529 7.78978L831.329 11.99L835.387 16.0488L839.588 11.8486L835.529 7.78978Z" stroke="#A68E31" stroke-width="0.86" stroke-miterlimit="10"/>
<path d="M809.68 19.05L815.28 25.05L828.1 37.98" stroke="#A68E31" stroke-width="0.86" stroke-miterlimit="10"/>
<path d="M817.03 12.21L835.25 30.68" stroke="#A68E31" stroke-width="0.86" stroke-miterlimit="10"/>
<path d="M828.53 11.67L809.27 31.09" stroke="#A68E31" stroke-width="0.86" stroke-miterlimit="10"/>
<path d="M835.25 18.4L816.63 37.98" stroke="#A68E31" stroke-width="0.86" stroke-miterlimit="10"/>
<path d="M855.05 9.84L855.28 18.84L860.71 23.83L860.86 15.83L855.05 9.84Z" fill="#EB008B"/>
<path d="M846.02 19.64L855.02 19.11L860.45 24.1L852.49 24.92L846.02 19.64Z" fill="#EB008B"/>
<path d="M867.71 40.47L867.82 32.41L863.14 27.76L862.73 34.91L867.71 40.47Z" fill="#EB008B"/>
<path d="M876.12 32.01L868.06 32.18L863.38 27.54L870.52 27.07L876.12 32.01Z" fill="#EB008B"/>
<path d="M876.5 20.06L868.13 19.54L863.06 24.17L870.47 24.96L876.5 20.06Z" fill="#EB008B"/>
<path d="M868.14 10.89L867.9 19.27L862.83 23.9L862.72 16.46L868.14 10.89Z" fill="#EB008B"/>
<path d="M847.55 32.22L855.77 32.15L860.4 27.27L853.11 27.01L847.55 32.22Z" fill="#EB008B"/>
<path d="M856.36 40.6L856.01 32.39L860.64 27.51L861.27 34.78L856.36 40.6Z" fill="#EB008B"/>
<path d="M875.531 12.5259L869.954 12.3194L869.748 17.8956L875.324 18.102L875.531 12.5259Z" fill="#A22064"/>
<path d="M854.431 33.6027L848.855 33.8052L849.057 39.3816L854.634 39.179L854.431 33.6027Z" fill="#A22064"/>
<path d="M874.92 33.73H869.34V39.31H874.92V33.73Z" fill="#A22064"/>
<path d="M853.87 12.0872L848.294 12.2897L848.497 17.8661L854.073 17.6635L853.87 12.0872Z" fill="#A22064"/>
<path d="M878.821 26.3852L875.731 23.2951L872.641 26.3852L875.731 29.4752L878.821 26.3852Z" fill="#F8EF90"/>
<path d="M850.916 26.3798L847.826 23.2898L844.736 26.3798L847.826 29.4699L850.916 26.3798Z" fill="#F8EF90"/>
<path d="M865.053 11.42L861.963 8.32996L858.873 11.42L861.963 14.5101L865.053 11.42Z" fill="#F8EF90"/>
<path d="M865.052 41.0204L861.962 37.9303L858.872 41.0204L861.962 44.1104L865.052 41.0204Z" fill="#F8EF90"/>
<path d="M920.84 5.61H906.95V19.05H920.84V5.61Z" fill="#414A1F" stroke="#A68E31" stroke-width="0.86" stroke-miterlimit="10"/>
<path d="M895.67 30.81H881.78V44.25H895.67V30.81Z" stroke="#6E6228" stroke-width="0.86" stroke-miterlimit="10"/>
<path d="M895.47 30.81H881.58V44.25H895.47V30.81Z" stroke="#A68E31" stroke-width="0.86" stroke-miterlimit="10"/>
<path d="M888.187 33.8054L883.987 38.0056L888.045 42.0644L892.246 37.8642L888.187 33.8054Z" stroke="#A68E31" stroke-width="0.86" stroke-miterlimit="10"/>
<path d="M920.84 30.81H906.95V44.25H920.84V30.81Z" stroke="#A68E31" stroke-width="0.86" stroke-miterlimit="10"/>
<path d="M913.973 33.4033L909.773 37.6035L913.832 41.6623L918.032 37.4621L913.973 33.4033Z" stroke="#A68E31" stroke-width="0.86" stroke-miterlimit="10"/>
<path d="M895.67 5.61H881.78V19.05H895.67V5.61Z" stroke="#6E6228" stroke-width="0.86" stroke-miterlimit="10"/>
<path d="M895.47 5.61H881.58V19.05H895.47V5.61Z" stroke="#A68E31" stroke-width="0.86" stroke-miterlimit="10"/>
<path d="M888.595 8.20353L884.395 12.4037L888.453 16.4625L892.654 12.2623L888.595 8.20353Z" stroke="#A68E31" stroke-width="0.86" stroke-miterlimit="10"/>
<path d="M901.414 17.7698L894.123 25.0601L901.173 32.11L908.464 24.8197L901.414 17.7698Z" stroke="#A68E31" stroke-width="0.86" stroke-miterlimit="10"/>
<path d="M920.32 24.62L900.98 43.95L882.28 25.25L901.62 5.91L907.37 11.67L910.79 15.09L914.1 18.4L920.32 24.62Z" fill="#414A1F" stroke="#A68E31" stroke-width="0.86" stroke-miterlimit="10"/>
<path d="M914.384 7.79439L910.184 11.9946L914.243 16.0534L918.443 11.8532L914.384 7.79439Z" stroke="#A68E31" stroke-width="0.86" stroke-miterlimit="10"/>
<path d="M888.53 19.05L894.13 25.05L906.95 37.98" stroke="#A68E31" stroke-width="0.86" stroke-miterlimit="10"/>
<path d="M895.88 12.21L914.1 30.68" stroke="#A68E31" stroke-width="0.86" stroke-miterlimit="10"/>
<path d="M907.37 11.67L888.12 31.09" stroke="#A68E31" stroke-width="0.86" stroke-miterlimit="10"/>
<path d="M914.1 18.4L895.47 37.98" stroke="#A68E31" stroke-width="0.86" stroke-miterlimit="10"/>
<path d="M933.9 9.84L934.13 18.84L939.56 23.83L939.71 15.83L933.9 9.84Z" fill="#EB008B"/>
<path d="M924.87 19.64L933.87 19.11L939.3 24.1L931.34 24.92L924.87 19.64Z" fill="#EB008B"/>
<path d="M946.56 40.47L946.67 32.41L941.99 27.76L941.58 34.91L946.56 40.47Z" fill="#EB008B"/>
<path d="M954.97 32.01L946.91 32.18L942.23 27.54L949.37 27.07L954.97 32.01Z" fill="#EB008B"/>
<path d="M955.35 20.06L946.98 19.54L941.91 24.17L949.32 24.96L955.35 20.06Z" fill="#EB008B"/>
<path d="M946.99 10.89L946.75 19.27L941.68 23.9L941.57 16.46L946.99 10.89Z" fill="#EB008B"/>
<path d="M926.4 32.22L934.62 32.15L939.25 27.27L931.95 27.01L926.4 32.22Z" fill="#EB008B"/>
<path d="M935.21 40.6L934.86 32.39L939.49 27.51L940.12 34.78L935.21 40.6Z" fill="#EB008B"/>
<path d="M954.387 12.5227L948.81 12.3163L948.604 17.8925L954.18 18.0989L954.387 12.5227Z" fill="#A22064"/>
<path d="M933.279 33.6009L927.703 33.8034L927.905 39.3797L933.482 39.1772L933.279 33.6009Z" fill="#A22064"/>
<path d="M953.77 33.73H948.19V39.31H953.77V33.73Z" fill="#A22064"/>
<path d="M932.718 12.0854L927.142 12.2879L927.345 17.8642L932.921 17.6617L932.718 12.0854Z" fill="#A22064"/>
<path d="M957.669 26.3835L954.579 23.2934L951.489 26.3835L954.579 29.4735L957.669 26.3835Z" fill="#F8EF90"/>
<path d="M929.771 26.3852L926.681 23.2951L923.591 26.3852L926.681 29.4752L929.771 26.3852Z" fill="#F8EF90"/>
<path d="M943.908 11.4254L940.818 8.33531L937.728 11.4254L940.818 14.5154L943.908 11.4254Z" fill="#F8EF90"/>
<path d="M943.908 41.0257L940.818 37.9357L937.728 41.0257L940.818 44.1158L943.908 41.0257Z" fill="#F8EF90"/>
<path d="M1003.37 5.61H989.48V19.05H1003.37V5.61Z" fill="#414A1F" stroke="#A68E31" stroke-width="0.86" stroke-miterlimit="10"/>
<path d="M978.2 30.81H964.31V44.25H978.2V30.81Z" stroke="#6E6228" stroke-width="0.86" stroke-miterlimit="10"/>
<path d="M978 30.81H964.11V44.25H978V30.81Z" stroke="#A68E31" stroke-width="0.86" stroke-miterlimit="10"/>
<path d="M970.714 33.7979L966.514 37.9981L970.573 42.0569L974.773 37.8567L970.714 33.7979Z" stroke="#A68E31" stroke-width="0.86" stroke-miterlimit="10"/>
<path d="M1003.37 30.81H989.48V44.25H1003.37V30.81Z" stroke="#A68E31" stroke-width="0.86" stroke-miterlimit="10"/>
<path d="M996.494 33.4029L992.294 37.6031L996.352 41.6619L1000.55 37.4617L996.494 33.4029Z" stroke="#A68E31" stroke-width="0.86" stroke-miterlimit="10"/>
<path d="M978.2 5.61H964.31V19.05H978.2V5.61Z" stroke="#6E6228" stroke-width="0.86" stroke-miterlimit="10"/>
<path d="M978 5.61H964.11V19.05H978V5.61Z" stroke="#A68E31" stroke-width="0.86" stroke-miterlimit="10"/>
<path d="M971.115 8.20307L966.915 12.4033L970.974 16.4621L975.174 12.2619L971.115 8.20307Z" stroke="#A68E31" stroke-width="0.86" stroke-miterlimit="10"/>
<path d="M983.951 17.7623L976.661 25.0526L983.711 32.1025L991.001 24.8122L983.951 17.7623Z" stroke="#A68E31" stroke-width="0.86" stroke-miterlimit="10"/>
<path d="M1002.84 24.62L983.51 43.95L964.8 25.25L984.14 5.91L989.9 11.67L993.32 15.09L996.63 18.4L1002.84 24.62Z" fill="#414A1F" stroke="#A68E31" stroke-width="0.86" stroke-miterlimit="10"/>
<path d="M996.912 7.78689L992.712 11.9871L996.77 16.0459L1000.97 11.8457L996.912 7.78689Z" stroke="#A68E31" stroke-width="0.86" stroke-miterlimit="10"/>
<path d="M971.05 19.05L976.65 25.05L989.48 37.98" stroke="#A68E31" stroke-width="0.86" stroke-miterlimit="10"/>
<path d="M978.4 12.21L996.63 30.68" stroke="#A68E31" stroke-width="0.86" stroke-miterlimit="10"/>
<path d="M989.9 11.67L970.65 31.09" stroke="#A68E31" stroke-width="0.86" stroke-miterlimit="10"/>
<path d="M996.63 18.4L978 37.98" stroke="#A68E31" stroke-width="0.86" stroke-miterlimit="10"/>
<path d="M1016.43 9.84L1016.65 18.84L1022.08 23.83L1022.23 15.83L1016.43 9.84Z" fill="#EB008B"/>
<path d="M1007.4 19.64L1016.39 19.11L1021.82 24.1L1013.86 24.92L1007.4 19.64Z" fill="#EB008B"/>
<path d="M1029.09 40.47L1029.2 32.41L1024.52 27.76L1024.11 34.91L1029.09 40.47Z" fill="#EB008B"/>
<path d="M1037.49 32.01L1029.43 32.18L1024.76 27.54L1031.9 27.07L1037.49 32.01Z" fill="#EB008B"/>
<path d="M1037.88 20.06L1029.5 19.54L1024.43 24.17L1031.84 24.96L1037.88 20.06Z" fill="#EB008B"/>
<path d="M1029.52 10.89L1029.28 19.27L1024.21 23.9L1024.09 16.46L1029.52 10.89Z" fill="#EB008B"/>
<path d="M1008.92 32.22L1017.14 32.15L1021.77 27.27L1014.48 27.01L1008.92 32.22Z" fill="#EB008B"/>
<path d="M1017.74 40.6L1017.38 32.39L1022.01 27.51L1022.65 34.78L1017.74 40.6Z" fill="#EB008B"/>
<path d="M1036.9 12.5254L1031.32 12.3189L1031.12 17.8951L1036.69 18.1015L1036.9 12.5254Z" fill="#A22064"/>
<path d="M1015.8 33.5954L1010.23 33.798L1010.43 39.3743L1016.01 39.1718L1015.8 33.5954Z" fill="#A22064"/>
<path d="M1036.29 33.73H1030.71V39.31H1036.29V33.73Z" fill="#A22064"/>
<path d="M1015.24 12.08L1009.67 12.2825L1009.87 17.8588L1015.45 17.6563L1015.24 12.08Z" fill="#A22064"/>
<path d="M1040.2 26.391L1037.11 23.301L1034.02 26.391L1037.11 29.4811L1040.2 26.391Z" fill="#F8EF90"/>
<path d="M1012.3 26.3827L1009.21 23.2927L1006.12 26.3827L1009.21 29.4728L1012.3 26.3827Z" fill="#F8EF90"/>
<path d="M1026.44 11.4229L1023.35 8.33281L1020.26 11.4229L1023.35 14.513L1026.44 11.4229Z" fill="#F8EF90"/>
<path d="M1026.44 41.0233L1023.35 37.9332L1020.26 41.0232L1023.35 44.1133L1026.44 41.0233Z" fill="#F8EF90"/>
<path d="M1082.21 5.61H1068.32V19.05H1082.21V5.61Z" fill="#414A1F" stroke="#A68E31" stroke-width="0.86" stroke-miterlimit="10"/>
<path d="M1057.05 30.81H1043.16V44.25H1057.05V30.81Z" stroke="#6E6228" stroke-width="0.86" stroke-miterlimit="10"/>
<path d="M1056.85 30.81H1042.96V44.25H1056.85V30.81Z" stroke="#A68E31" stroke-width="0.86" stroke-miterlimit="10"/>
<path d="M1049.57 33.8025L1045.37 38.0027L1049.43 42.0615L1053.63 37.8613L1049.57 33.8025Z" stroke="#A68E31" stroke-width="0.86" stroke-miterlimit="10"/>
<path d="M1082.21 30.81H1068.32V44.25H1082.21V30.81Z" stroke="#A68E31" stroke-width="0.86" stroke-miterlimit="10"/>
<path d="M1075.34 33.3975L1071.14 37.5977L1075.2 41.6565L1079.4 37.4563L1075.34 33.3975Z" stroke="#A68E31" stroke-width="0.86" stroke-miterlimit="10"/>
<path d="M1057.05 5.61H1043.16V19.05H1057.05V5.61Z" stroke="#6E6228" stroke-width="0.86" stroke-miterlimit="10"/>
<path d="M1056.85 5.61H1042.96V19.05H1056.85V5.61Z" stroke="#A68E31" stroke-width="0.86" stroke-miterlimit="10"/>
<path d="M1049.97 8.20772L1045.77 12.4079L1049.83 16.4667L1054.03 12.2665L1049.97 8.20772Z" stroke="#A68E31" stroke-width="0.86" stroke-miterlimit="10"/>
<path d="M1062.8 17.767L1055.51 25.0572L1062.56 32.1071L1069.85 24.8168L1062.8 17.767Z" stroke="#A68E31" stroke-width="0.86" stroke-miterlimit="10"/>
<path d="M1081.69 24.62L1062.36 43.95L1043.65 25.25L1062.99 5.91L1068.75 11.67L1072.17 15.09L1075.48 18.4L1081.69 24.62Z" fill="#414A1F" stroke="#A68E31" stroke-width="0.86" stroke-miterlimit="10"/>
<path d="M1075.76 7.79149L1071.56 11.9918L1075.62 16.0505L1079.82 11.8503L1075.76 7.79149Z" stroke="#A68E31" stroke-width="0.86" stroke-miterlimit="10"/>
<path d="M1049.9 19.05L1055.5 25.05L1068.32 37.98" stroke="#A68E31" stroke-width="0.86" stroke-miterlimit="10"/>
<path d="M1057.25 12.21L1075.48 30.68" stroke="#A68E31" stroke-width="0.86" stroke-miterlimit="10"/>
<path d="M1068.75 11.67L1049.5 31.09" stroke="#A68E31" stroke-width="0.86" stroke-miterlimit="10"/>
<path d="M1075.48 18.4L1056.85 37.98" stroke="#A68E31" stroke-width="0.86" stroke-miterlimit="10"/>
<path d="M1095.28 9.84L1095.5 18.84L1100.93 23.83L1101.08 15.83L1095.28 9.84Z" fill="#EB008B"/>
<path d="M1086.25 19.64L1095.24 19.11L1100.67 24.1L1092.71 24.92L1086.25 19.64Z" fill="#EB008B"/>
<path d="M1107.94 40.47L1108.04 32.41L1103.37 27.76L1102.95 34.91L1107.94 40.47Z" fill="#EB008B"/>
<path d="M1116.34 32.01L1108.28 32.18L1103.6 27.54L1110.74 27.07L1116.34 32.01Z" fill="#EB008B"/>
<path d="M1116.73 20.06L1108.35 19.54L1103.28 24.17L1110.69 24.96L1116.73 20.06Z" fill="#EB008B"/>
<path d="M1108.37 10.89L1108.13 19.27L1103.06 23.9L1102.94 16.46L1108.37 10.89Z" fill="#EB008B"/>
<path d="M1087.77 32.22L1095.99 32.15L1100.62 27.27L1093.33 27.01L1087.77 32.22Z" fill="#EB008B"/>
<path d="M1096.59 40.6L1096.23 32.39L1100.86 27.51L1101.5 34.78L1096.59 40.6Z" fill="#EB008B"/>
<path d="M1115.76 12.5222L1110.18 12.3158L1109.97 17.892L1115.55 18.0984L1115.76 12.5222Z" fill="#A22064"/>
<path d="M1094.65 33.5936L1089.08 33.7961L1089.28 39.3725L1094.86 39.1699L1094.65 33.5936Z" fill="#A22064"/>
<path d="M1115.14 33.73H1109.56V39.31H1115.14V33.73Z" fill="#A22064"/>
<path d="M1094.09 12.0781L1088.52 12.2806L1088.72 17.857L1094.29 17.6544L1094.09 12.0781Z" fill="#A22064"/>
<path d="M1119.04 26.3864L1115.95 23.2963L1112.86 26.3864L1115.95 29.4764L1119.04 26.3864Z" fill="#F8EF90"/>
<path d="M1091.14 26.3881L1088.05 23.298L1084.96 26.3881L1088.05 29.4781L1091.14 26.3881Z" fill="#F8EF90"/>
<path d="M1105.28 11.4283L1102.19 8.3382L1099.1 11.4283L1102.19 14.5183L1105.28 11.4283Z" fill="#F8EF90"/>
<path d="M1105.28 41.0286L1102.19 37.9386L1099.1 41.0286L1102.19 44.1187L1105.28 41.0286Z" fill="#F8EF90"/>
<path d="M1161.06 5.61H1147.17V19.05H1161.06V5.61Z" fill="#414A1F" stroke="#A68E31" stroke-width="0.86" stroke-miterlimit="10"/>
<path d="M1135.89 30.81H1122V44.25H1135.89V30.81Z" stroke="#6E6228" stroke-width="0.86" stroke-miterlimit="10"/>
<path d="M1135.7 30.81H1121.81V44.25H1135.7V30.81Z" stroke="#A68E31" stroke-width="0.86" stroke-miterlimit="10"/>
<path d="M1128.42 33.7972L1124.21 37.9973L1128.27 42.0561L1132.47 37.8559L1128.42 33.7972Z" stroke="#A68E31" stroke-width="0.86" stroke-miterlimit="10"/>
<path d="M1161.06 30.81H1147.17V44.25H1161.06V30.81Z" stroke="#A68E31" stroke-width="0.86" stroke-miterlimit="10"/>
<path d="M1154.19 33.4022L1149.99 37.6023L1154.05 41.6611L1158.25 37.461L1154.19 33.4022Z" stroke="#A68E31" stroke-width="0.86" stroke-miterlimit="10"/>
<path d="M1135.89 5.61H1122V19.05H1135.89V5.61Z" stroke="#6E6228" stroke-width="0.86" stroke-miterlimit="10"/>
<path d="M1135.7 5.61H1121.81V19.05H1135.7V5.61Z" stroke="#A68E31" stroke-width="0.86" stroke-miterlimit="10"/>
<path d="M1128.82 8.20236L1124.62 12.4025L1128.67 16.4613L1132.87 12.2612L1128.82 8.20236Z" stroke="#A68E31" stroke-width="0.86" stroke-miterlimit="10"/>
<path d="M1141.64 17.7615L1134.35 25.0518L1141.4 32.1017L1148.69 24.8114L1141.64 17.7615Z" stroke="#A68E31" stroke-width="0.86" stroke-miterlimit="10"/>
<path d="M1160.54 24.62L1141.21 43.95L1122.5 25.25L1141.84 5.91L1147.6 11.67L1151.02 15.09L1154.33 18.4L1160.54 24.62Z" fill="#414A1F" stroke="#A68E31" stroke-width="0.86" stroke-miterlimit="10"/>
<path d="M1154.61 7.78614L1150.41 11.9864L1154.47 16.0452L1158.67 11.8449L1154.61 7.78614Z" stroke="#A68E31" stroke-width="0.86" stroke-miterlimit="10"/>
<path d="M1128.75 19.05L1134.35 25.05L1147.17 37.98" stroke="#A68E31" stroke-width="0.86" stroke-miterlimit="10"/>
<path d="M1136.1 12.21L1154.32 30.68" stroke="#A68E31" stroke-width="0.86" stroke-miterlimit="10"/>
<path d="M1147.6 11.67L1128.35 31.09" stroke="#A68E31" stroke-width="0.86" stroke-miterlimit="10"/>
<path d="M1154.32 18.4L1135.7 37.98" stroke="#A68E31" stroke-width="0.86" stroke-miterlimit="10"/>
<path d="M1174.13 9.84L1174.35 18.84L1179.78 23.83L1179.93 15.83L1174.13 9.84Z" fill="#EB008B"/>
<path d="M1165.1 19.64L1174.09 19.11L1179.52 24.1L1171.56 24.92L1165.1 19.64Z" fill="#EB008B"/>
<path d="M1186.79 40.47L1186.89 32.41L1182.21 27.76L1181.8 34.91L1186.79 40.47Z" fill="#EB008B"/>
<path d="M1195.19 32.01L1187.13 32.18L1182.45 27.54L1189.59 27.07L1195.19 32.01Z" fill="#EB008B"/>
<path d="M1195.58 20.06L1187.2 19.54L1182.13 24.17L1189.54 24.96L1195.58 20.06Z" fill="#EB008B"/>
<path d="M1187.21 10.89L1186.98 19.27L1181.91 23.9L1181.79 16.46L1187.21 10.89Z" fill="#EB008B"/>
<path d="M1166.62 32.22L1174.84 32.15L1179.47 27.27L1172.18 27.01L1166.62 32.22Z" fill="#EB008B"/>
<path d="M1175.44 40.6L1175.08 32.39L1179.71 27.51L1180.35 34.78L1175.44 40.6Z" fill="#EB008B"/>
<path d="M1194.6 12.5191L1189.03 12.3127L1188.82 17.8888L1194.4 18.0953L1194.6 12.5191Z" fill="#A22064"/>
<path d="M1173.51 33.5917L1167.93 33.7943L1168.14 39.3706L1173.71 39.1681L1173.51 33.5917Z" fill="#A22064"/>
<path d="M1193.99 33.73H1188.41V39.31H1193.99V33.73Z" fill="#A22064"/>
<path d="M1172.95 12.0762L1167.37 12.2788L1167.58 17.8551L1173.15 17.6526L1172.95 12.0762Z" fill="#A22064"/>
<path d="M1197.9 26.3917L1194.81 23.3017L1191.72 26.3917L1194.81 29.4818L1197.9 26.3917Z" fill="#F8EF90"/>
<path d="M1169.99 26.3834L1166.9 23.2934L1163.81 26.3834L1166.9 29.4735L1169.99 26.3834Z" fill="#F8EF90"/>
<path d="M1184.14 11.4236L1181.05 8.33356L1177.96 11.4236L1181.05 14.5137L1184.14 11.4236Z" fill="#F8EF90"/>
<path d="M1184.14 41.024L1181.05 37.9339L1177.96 41.024L1181.05 44.114L1184.14 41.024Z" fill="#F8EF90"/>
<path d="M1239.91 5.61H1226.02V19.05H1239.91V5.61Z" fill="#414A1F" stroke="#A68E31" stroke-width="0.86" stroke-miterlimit="10"/>
<path d="M1214.74 30.81H1200.85V44.25H1214.74V30.81Z" stroke="#6E6228" stroke-width="0.86" stroke-miterlimit="10"/>
<path d="M1214.54 30.81H1200.65V44.25H1214.54V30.81Z" stroke="#A68E31" stroke-width="0.86" stroke-miterlimit="10"/>
<path d="M1207.26 33.8017L1203.06 38.002L1207.12 42.0608L1211.32 37.8605L1207.26 33.8017Z" stroke="#A68E31" stroke-width="0.86" stroke-miterlimit="10"/>
<path d="M1239.91 30.81H1226.02V44.25H1239.91V30.81Z" stroke="#A68E31" stroke-width="0.86" stroke-miterlimit="10"/>
<path d="M1233.04 33.3968L1228.84 37.597L1232.9 41.6558L1237.1 37.4556L1233.04 33.3968Z" stroke="#A68E31" stroke-width="0.86" stroke-miterlimit="10"/>
<path d="M1214.74 5.61H1200.85V19.05H1214.74V5.61Z" stroke="#6E6228" stroke-width="0.86" stroke-miterlimit="10"/>
<path d="M1214.54 5.61H1200.65V19.05H1214.54V5.61Z" stroke="#A68E31" stroke-width="0.86" stroke-miterlimit="10"/>
<path d="M1207.67 8.20702L1203.47 12.4072L1207.53 16.466L1211.73 12.2658L1207.67 8.20702Z" stroke="#A68E31" stroke-width="0.86" stroke-miterlimit="10"/>
<path d="M1220.5 17.7662L1213.21 25.0565L1220.26 32.1064L1227.55 24.816L1220.5 17.7662Z" stroke="#A68E31" stroke-width="0.86" stroke-miterlimit="10"/>
<path d="M1239.39 24.62L1220.05 43.95L1201.35 25.25L1220.69 5.91L1226.45 11.67L1229.86 15.09L1233.17 18.4L1239.39 24.62Z" fill="#414A1F" stroke="#A68E31" stroke-width="0.86" stroke-miterlimit="10"/>
<path d="M1233.46 7.79079L1229.26 11.991L1233.32 16.0498L1237.52 11.8496L1233.46 7.79079Z" stroke="#A68E31" stroke-width="0.86" stroke-miterlimit="10"/>
<path d="M1207.6 19.05L1213.2 25.05L1226.02 37.98" stroke="#A68E31" stroke-width="0.86" stroke-miterlimit="10"/>
<path d="M1214.95 12.21L1233.17 30.68" stroke="#A68E31" stroke-width="0.86" stroke-miterlimit="10"/>
<path d="M1226.45 11.67L1207.2 31.09" stroke="#A68E31" stroke-width="0.86" stroke-miterlimit="10"/>
<path d="M1233.17 18.4L1214.55 37.98" stroke="#A68E31" stroke-width="0.86" stroke-miterlimit="10"/>
<path d="M1252.97 9.84L1253.2 18.84L1258.63 23.83L1258.78 15.83L1252.97 9.84Z" fill="#EB008B"/>
<path d="M1243.95 19.64L1252.94 19.11L1258.37 24.1L1250.41 24.92L1243.95 19.64Z" fill="#EB008B"/>
<path d="M1265.64 40.47L1265.74 32.41L1261.06 27.76L1260.65 34.91L1265.64 40.47Z" fill="#EB008B"/>
<path d="M1274.04 32.01L1265.98 32.18L1261.3 27.54L1268.44 27.07L1274.04 32.01Z" fill="#EB008B"/>
<path d="M1274.43 20.06L1266.05 19.54L1260.98 24.17L1268.39 24.96L1274.43 20.06Z" fill="#EB008B"/>
<path d="M1266.06 10.89L1265.83 19.27L1260.76 23.9L1260.64 16.46L1266.06 10.89Z" fill="#EB008B"/>
<path d="M1245.47 32.22L1253.69 32.15L1258.32 27.27L1251.03 27.01L1245.47 32.22Z" fill="#EB008B"/>
<path d="M1254.29 40.6L1253.93 32.39L1258.56 27.51L1259.2 34.78L1254.29 40.6Z" fill="#EB008B"/>
<path d="M1273.45 12.5159L1267.87 12.3095L1267.67 17.8857L1273.24 18.0921L1273.45 12.5159Z" fill="#A22064"/>
<path d="M1252.36 33.5899L1246.78 33.7924L1246.99 39.3687L1252.56 39.1662L1252.36 33.5899Z" fill="#A22064"/>
<path d="M1272.84 33.73H1267.26V39.31H1272.84V33.73Z" fill="#A22064"/>
<path d="M1251.8 12.0744L1246.22 12.2769L1246.42 17.8533L1252 17.6507L1251.8 12.0744Z" fill="#A22064"/>
<path d="M1276.74 26.3871L1273.65 23.297L1270.56 26.3871L1273.65 29.4771L1276.74 26.3871Z" fill="#F8EF90"/>
<path d="M1248.84 26.3888L1245.75 23.2987L1242.66 26.3888L1245.75 29.4788L1248.84 26.3888Z" fill="#F8EF90"/>
<path d="M1262.98 11.429L1259.89 8.33891L1256.8 11.429L1259.89 14.519L1262.98 11.429Z" fill="#F8EF90"/>
<path d="M1262.98 41.0293L1259.89 37.9393L1256.8 41.0293L1259.89 44.1194L1262.98 41.0293Z" fill="#F8EF90"/>
<path d="M1318.76 5.61H1304.87V19.05H1318.76V5.61Z" fill="#414A1F" stroke="#A68E31" stroke-width="0.86" stroke-miterlimit="10"/>
<path d="M1293.59 30.81H1279.7V44.25H1293.59V30.81Z" stroke="#6E6228" stroke-width="0.86" stroke-miterlimit="10"/>
<path d="M1293.39 30.81H1279.5V44.25H1293.39V30.81Z" stroke="#A68E31" stroke-width="0.86" stroke-miterlimit="10"/>
<path d="M1286.12 33.7964L1281.92 37.9966L1285.97 42.0554L1290.17 37.8552L1286.12 33.7964Z" stroke="#A68E31" stroke-width="0.86" stroke-miterlimit="10"/>
<path d="M1318.76 30.81H1304.87V44.25H1318.76V30.81Z" stroke="#A68E31" stroke-width="0.86" stroke-miterlimit="10"/>
<path d="M1311.89 33.4014L1307.69 37.6016L1311.74 41.6604L1315.94 37.4602L1311.89 33.4014Z" stroke="#A68E31" stroke-width="0.86" stroke-miterlimit="10"/>
<path d="M1293.59 5.61H1279.7V19.05H1293.59V5.61Z" stroke="#6E6228" stroke-width="0.86" stroke-miterlimit="10"/>
<path d="M1293.39 5.61H1279.5V19.05H1293.39V5.61Z" stroke="#A68E31" stroke-width="0.86" stroke-miterlimit="10"/>
<path d="M1286.52 8.20157L1282.32 12.4018L1286.38 16.4606L1290.58 12.2604L1286.52 8.20157Z" stroke="#A68E31" stroke-width="0.86" stroke-miterlimit="10"/>
<path d="M1299.34 17.7608L1292.05 25.0511L1299.1 32.101L1306.39 24.8107L1299.34 17.7608Z" stroke="#A68E31" stroke-width="0.86" stroke-miterlimit="10"/>
<path d="M1318.24 24.62L1298.9 43.95L1280.2 25.25L1299.54 5.91L1305.3 11.67L1308.71 15.09L1312.02 18.4L1318.24 24.62Z" fill="#414A1F" stroke="#A68E31" stroke-width="0.86" stroke-miterlimit="10"/>
<path d="M1312.31 7.78544L1308.11 11.9856L1312.17 16.0444L1316.37 11.8442L1312.31 7.78544Z" stroke="#A68E31" stroke-width="0.86" stroke-miterlimit="10"/>
<path d="M1286.45 19.05L1292.05 25.05L1304.87 37.98" stroke="#A68E31" stroke-width="0.86" stroke-miterlimit="10"/>
<path d="M1293.8 12.21L1312.02 30.68" stroke="#A68E31" stroke-width="0.86" stroke-miterlimit="10"/>
<path d="M1305.3 11.67L1286.04 31.09" stroke="#A68E31" stroke-width="0.86" stroke-miterlimit="10"/>
<path d="M1312.02 18.4L1293.4 37.98" stroke="#A68E31" stroke-width="0.86" stroke-miterlimit="10"/>
<path d="M1331.82 9.84L1332.05 18.84L1337.48 23.83L1337.63 15.83L1331.82 9.84Z" fill="#EB008B"/>
<path d="M1322.79 19.64L1331.79 19.11L1337.22 24.1L1329.26 24.92L1322.79 19.64Z" fill="#EB008B"/>
<path d="M1344.49 40.47L1344.59 32.41L1339.91 27.76L1339.5 34.91L1344.49 40.47Z" fill="#EB008B"/>
<path d="M1352.89 32.01L1344.83 32.18L1340.15 27.54L1347.29 27.07L1352.89 32.01Z" fill="#EB008B"/>
<path d="M1353.28 20.06L1344.9 19.54L1339.83 24.17L1347.24 24.96L1353.28 20.06Z" fill="#EB008B"/>
<path d="M1344.91 10.89L1344.68 19.27L1339.61 23.9L1339.49 16.46L1344.91 10.89Z" fill="#EB008B"/>
<path d="M1324.32 32.22L1332.54 32.15L1337.17 27.27L1329.88 27.01L1324.32 32.22Z" fill="#EB008B"/>
<path d="M1333.13 40.6L1332.78 32.39L1337.41 27.51L1338.05 34.78L1333.13 40.6Z" fill="#EB008B"/>
<path d="M1352.3 12.5228L1346.73 12.3164L1346.52 17.8926L1352.1 18.099L1352.3 12.5228Z" fill="#A22064"/>
<path d="M1331.2 33.5884L1325.62 33.7909L1325.82 39.3673L1331.4 39.1647L1331.2 33.5884Z" fill="#A22064"/>
<path d="M1351.69 33.73H1346.11V39.31H1351.69V33.73Z" fill="#A22064"/>
<path d="M1330.65 12.0726L1325.07 12.2751L1325.27 17.8514L1330.85 17.6489L1330.65 12.0726Z" fill="#A22064"/>
<path d="M1355.6 26.3924L1352.51 23.3024L1349.42 26.3924L1352.51 29.4825L1355.6 26.3924Z" fill="#F8EF90"/>
<path d="M1327.69 26.3842L1324.6 23.2942L1321.51 26.3842L1324.6 29.4743L1327.69 26.3842Z" fill="#F8EF90"/>
<path d="M1341.82 11.4173L1338.73 8.32727L1335.64 11.4173L1338.73 14.5074L1341.82 11.4173Z" fill="#F8EF90"/>
<path d="M1341.83 41.0277L1338.74 37.9376L1335.65 41.0277L1338.74 44.1177L1341.83 41.0277Z" fill="#F8EF90"/>
<path d="M1397.61 5.61H1383.72V19.05H1397.61V5.61Z" fill="#414A1F" stroke="#A68E31" stroke-width="0.86" stroke-miterlimit="10"/>
<path d="M1372.44 30.81H1358.55V44.25H1372.44V30.81Z" stroke="#6E6228" stroke-width="0.86" stroke-miterlimit="10"/>
<path d="M1372.24 30.81H1358.35V44.25H1372.24V30.81Z" stroke="#A68E31" stroke-width="0.86" stroke-miterlimit="10"/>
<path d="M1364.95 33.8081L1360.75 38.0083L1364.81 42.0671L1369.01 37.8669L1364.95 33.8081Z" stroke="#A68E31" stroke-width="0.86" stroke-miterlimit="10"/>
<path d="M1397.61 30.81H1383.72V44.25H1397.61V30.81Z" stroke="#A68E31" stroke-width="0.86" stroke-miterlimit="10"/>
<path d="M1390.74 33.396L1386.54 37.5963L1390.6 41.6551L1394.8 37.4548L1390.74 33.396Z" stroke="#A68E31" stroke-width="0.86" stroke-miterlimit="10"/>
<path d="M1372.44 5.61H1358.55V19.05H1372.44V5.61Z" stroke="#6E6228" stroke-width="0.86" stroke-miterlimit="10"/>
<path d="M1372.24 5.61H1358.35V19.05H1372.24V5.61Z" stroke="#A68E31" stroke-width="0.86" stroke-miterlimit="10"/>
<path d="M1365.37 8.19622L1361.17 12.3965L1365.23 16.4553L1369.43 12.255L1365.37 8.19622Z" stroke="#A68E31" stroke-width="0.86" stroke-miterlimit="10"/>
<path d="M1378.2 17.7655L1370.91 25.0557L1377.96 32.1056L1385.25 24.8153L1378.2 17.7655Z" stroke="#A68E31" stroke-width="0.86" stroke-miterlimit="10"/>
<path d="M1397.09 24.62L1377.75 43.95L1359.05 25.25L1378.39 5.91L1384.15 11.67L1387.56 15.09L1390.87 18.4L1397.09 24.62Z" fill="#414A1F" stroke="#A68E31" stroke-width="0.86" stroke-miterlimit="10"/>
<path d="M1391.15 7.79707L1386.95 11.9973L1391.01 16.0561L1395.21 11.8559L1391.15 7.79707Z" stroke="#A68E31" stroke-width="0.86" stroke-miterlimit="10"/>
<path d="M1365.3 19.05L1370.9 25.05L1383.72 37.98" stroke="#A68E31" stroke-width="0.86" stroke-miterlimit="10"/>
<path d="M1372.65 12.21L1390.87 30.68" stroke="#A68E31" stroke-width="0.86" stroke-miterlimit="10"/>
<path d="M1384.15 11.67L1364.89 31.09" stroke="#A68E31" stroke-width="0.86" stroke-miterlimit="10"/>
<path d="M1390.87 18.4L1372.25 37.98" stroke="#A68E31" stroke-width="0.86" stroke-miterlimit="10"/>
<path d="M1410.67 9.84L1410.9 18.84L1416.33 23.83L1416.48 15.83L1410.67 9.84Z" fill="#EB008B"/>
<path d="M1401.64 19.64L1410.64 19.11L1416.07 24.1L1408.11 24.92L1401.64 19.64Z" fill="#EB008B"/>
<path d="M1423.33 40.47L1423.44 32.41L1418.76 27.76L1418.35 34.91L1423.33 40.47Z" fill="#EB008B"/>
<path d="M1431.74 32.01L1423.68 32.18L1419 27.54L1426.14 27.07L1431.74 32.01Z" fill="#EB008B"/>
<path d="M1432.13 20.06L1423.75 19.54L1418.68 24.17L1426.09 24.96L1432.13 20.06Z" fill="#EB008B"/>
<path d="M1423.76 10.89L1423.52 19.27L1418.46 23.9L1418.34 16.46L1423.76 10.89Z" fill="#EB008B"/>
<path d="M1403.17 32.22L1411.39 32.15L1416.02 27.27L1408.73 27.01L1403.17 32.22Z" fill="#EB008B"/>
<path d="M1411.98 40.6L1411.63 32.39L1416.26 27.51L1416.9 34.78L1411.98 40.6Z" fill="#EB008B"/>
<path d="M1431.15 12.5197L1425.57 12.3132L1425.37 17.8894L1430.94 18.0958L1431.15 12.5197Z" fill="#A22064"/>
<path d="M1410.05 33.5866L1404.47 33.7891L1404.67 39.3654L1410.25 39.1629L1410.05 33.5866Z" fill="#A22064"/>
<path d="M1430.54 33.73H1424.96V39.31H1430.54V33.73Z" fill="#A22064"/>
<path d="M1409.49 12.0707L1403.92 12.2732L1404.12 17.8495L1409.7 17.647L1409.49 12.0707Z" fill="#A22064"/>
<path d="M1434.44 26.3879L1431.35 23.2978L1428.26 26.3879L1431.35 29.4779L1434.44 26.3879Z" fill="#F8EF90"/>
<path d="M1406.55 26.3896L1403.46 23.2995L1400.37 26.3896L1403.46 29.4796L1406.55 26.3896Z" fill="#F8EF90"/>
<path d="M1420.68 11.4227L1417.59 8.33262L1414.5 11.4227L1417.59 14.5127L1420.68 11.4227Z" fill="#F8EF90"/>
<path d="M1420.68 41.023L1417.58 37.933L1414.49 41.023L1417.58 44.1131L1420.68 41.023Z" fill="#F8EF90"/>
</g>
<defs>
<clipPath id="clip0_49_4430">
<rect width="1440.14" height="48.05" fill="white"/>
</clipPath>
<clipPath id="clip1_49_4430">
<rect width="1440.14" height="48.05" fill="white" transform="translate(0 1)"/>
</clipPath>
</defs>
</svg>
