<svg width="53" height="53" viewBox="0 0 53 53" fill="none" xmlns="http://www.w3.org/2000/svg">
<g clip-path="url(#clip0_246_548)">
<path fill-rule="evenodd" clip-rule="evenodd" d="M8.9 -4C8.39609 -4 7.91282 -3.79654 7.5565 -3.43438C7.20018 -3.07222 7 -2.58102 7 -2.06885V40.0689C7 40.581 7.20018 41.0722 7.5565 41.4344C7.91282 41.7965 8.39609 42 8.9 42H43.1C43.6039 42 44.0872 41.7965 44.4435 41.4344C44.7998 41.0722 45 40.581 45 40.0689V12.6813C45.0005 12.422 44.9496 12.1652 44.8504 11.9263C44.7511 11.6874 44.6056 11.4713 44.4224 11.2908L29.4618 -3.44769C29.108 -3.79835 28.6336 -3.99508 28.1394 -3.99614L8.9 -4ZM38.4108 10.7501L30.0394 2.49639V10.7501H38.4108ZM22.2 13.2065H14.6V9.34425H22.2V13.2065ZM37.4 22.8623H14.6V19H37.4V22.8623ZM14.6 32.5181H37.4V28.6558H14.6V32.5181Z" fill="#F7931E"/>
<path d="M49.1053 21V46.1333H16V50H51.0526C51.5691 50 52.0644 49.7963 52.4296 49.4337C52.7948 49.0712 53 48.5794 53 48.0667V21H49.1053Z" fill="#F7931E"/>
</g>
<defs>
<clipPath id="clip0_246_548">
<rect width="53" height="53" fill="white"/>
</clipPath>
</defs>
</svg>
