<svg width="51" height="41" viewBox="0 0 51 41" fill="none" xmlns="http://www.w3.org/2000/svg">
<path d="M16.3333 20C18.8971 20 21.3558 18.9815 23.1687 17.1687C24.9816 15.3558 26 12.8971 26 10.3333C26 7.76953 24.9816 5.31078 23.1687 3.49793C21.3558 1.68508 18.8971 0.666626 16.3333 0.666626C13.7696 0.666626 11.3108 1.68508 9.49797 3.49793C7.68512 5.31078 6.66667 7.76953 6.66667 10.3333C6.66667 12.8971 7.68512 15.3558 9.49797 17.1687C11.3108 18.9815 13.7696 20 16.3333 20ZM38.0833 20C40.0062 20 41.8502 19.2361 43.2099 17.8765C44.5695 16.5168 45.3333 14.6728 45.3333 12.75C45.3333 10.8271 44.5695 8.98307 43.2099 7.62344C41.8502 6.2638 40.0062 5.49996 38.0833 5.49996C36.1605 5.49996 34.3164 6.2638 32.9568 7.62344C31.5972 8.98307 30.8333 10.8271 30.8333 12.75C30.8333 14.6728 31.5972 16.5168 32.9568 17.8765C34.3164 19.2361 36.1605 20 38.0833 20ZM5.15625 23.625C3.95449 23.625 2.80195 24.1024 1.95217 24.9521C1.1024 25.8019 0.625 26.9544 0.625 28.1562V29.6666C0.625 29.6666 0.625 40.5416 16.3333 40.5416C32.0417 40.5416 32.0417 29.6666 32.0417 29.6666V28.1562C32.0417 26.9544 31.5643 25.8019 30.7145 24.9521C29.8647 24.1024 28.7122 23.625 27.5104 23.625H5.15625ZM31.6478 37.0242C33.3104 37.6984 35.4165 38.125 38.0821 38.125C50.7696 38.125 50.7696 28.4583 50.7696 28.4583V28.1562C50.7696 26.9547 50.2924 25.8023 49.4429 24.9526C48.5934 24.1028 47.4411 23.6253 46.2396 23.625H32.7751C33.8615 24.8845 34.4581 26.4929 34.4559 28.1562V29.721L34.4547 29.7899L34.4475 29.9711C34.441 30.1105 34.4269 30.2837 34.4052 30.4907C34.3446 31.0303 34.2477 31.5652 34.1152 32.0918C33.657 33.8942 32.8154 35.5766 31.6478 37.0242Z" fill="#F7931E"/>
</svg>
